<svg xmlns="http://www.w3.org/2000/svg" width="200" height="62" viewBox="0 0 200 62">
  <defs>
    <style>
      .cls-1, .cls-6 {
        fill: none;
      }

      .cls-1 {
        stroke: #e7ebf2;
        stroke-width: 2px;
      }

      .cls-2, .cls-3 {
        fill: #222;
      }

      .cls-2 {
        font-size: 26px;
        font-family: PingFang SC-Bold, PingFang SC;
        font-weight: 700;
      }

      .cls-4 {
        fill: #fff;
      }

      .cls-5 {
        stroke: none;
      }
    </style>
  </defs>
  <g id="ddjd_icon" transform="translate(-519 -804)">
    <g id="组_4153" data-name="组 4153" transform="translate(4654 -9951)">
      <g id="矩形_3311" data-name="矩形 3311" class="cls-1" transform="translate(-4135 10755)">
        <rect class="cls-5" width="200" height="62" rx="31"/>
        <rect class="cls-6" x="1" y="1" width="198" height="60" rx="30"/>
      </g>
      <g id="组_8177" data-name="组 8177" transform="translate(-4.001)">
        <g id="组_4152" data-name="组 4152">
          <text id="私聊详谈" class="cls-2" transform="translate(-4065 10796)"><tspan x="0" y="0">私聊详谈</tspan></text>
        </g>
        <g id="sl_icon" transform="translate(-5487.299 9239.88)">
          <path id="路径_3817" data-name="路径 3817" class="cls-3" d="M1414.3,1547.117a14,14,0,0,1-13.881,14h-13.588l.034-.087a14.17,14.17,0,0,0,.127-9.558,14,14,0,1,1,27.308-4.358Z" transform="translate(0)"/>
          <g id="组_5769" data-name="组 5769" transform="translate(1393.278 1542.969)">
            <path id="路径_3818" data-name="路径 3818" class="cls-4" d="M1410.133,1551.066h-11.607a1.106,1.106,0,1,1,0-2.2h11.607a1.106,1.106,0,1,1,0,2.2Z" transform="translate(-1397.308 -1548.864)"/>
          </g>
          <g id="组_5770" data-name="组 5770" transform="translate(1393.232 1549.538)">
            <path id="路径_3819" data-name="路径 3819" class="cls-4" d="M1405.819,1561.566h-7.292a1.107,1.107,0,1,1,0-2.2h7.292a1.107,1.107,0,1,1,0,2.2Z" transform="translate(-1397.308 -1559.364)"/>
          </g>
        </g>
      </g>
    </g>
  </g>
</svg>
