<svg xmlns="http://www.w3.org/2000/svg" width="48" height="48" viewBox="0 0 48 48">
  <defs>
    <style>
      .cls-1 {
        fill: none;
      }

      .cls-2 {
        fill: #222;
      }
    </style>
  </defs>
  <g id="jp_icon" transform="translate(17834 9303)">
    <rect id="矩形_1412" data-name="矩形 1412" class="cls-1" width="48" height="48" transform="translate(-17834 -9303)"/>
    <g id="组_2982" data-name="组 2982" transform="translate(-17831 -9299.999)">
      <g id="组_2982-2" data-name="组 2982" transform="translate(0 0)">
        <path id="路径_2129" data-name="路径 2129" class="cls-2" d="M1663.49,1483.529a20.795,20.795,0,1,1,20.795-20.794A20.818,20.818,0,0,1,1663.49,1483.529Zm0-38.458a17.663,17.663,0,1,0,17.663,17.663A17.683,17.683,0,0,0,1663.49,1445.072Z" transform="translate(-1642.695 -1441.94)"/>
      </g>
      <g id="组_2983" data-name="组 2983" transform="translate(27.257 11.457)">
        <rect id="矩形_2197" data-name="矩形 2197" class="cls-2" width="5.122" height="3.923" transform="translate(0 0)"/>
      </g>
      <g id="组_2984" data-name="组 2984" transform="translate(27.257 18.731)">
        <rect id="矩形_2198" data-name="矩形 2198" class="cls-2" width="5.122" height="3.923"/>
      </g>
      <g id="组_2985" data-name="组 2985" transform="translate(9.212 11.457)">
        <rect id="矩形_2199" data-name="矩形 2199" class="cls-2" width="5.122" height="3.923" transform="translate(0 0)"/>
      </g>
      <g id="组_2986" data-name="组 2986" transform="translate(9.212 18.731)">
        <rect id="矩形_2200" data-name="矩形 2200" class="cls-2" width="5.122" height="3.923"/>
      </g>
      <g id="组_2987" data-name="组 2987" transform="translate(9.212 26.005)">
        <rect id="矩形_2201" data-name="矩形 2201" class="cls-2" width="5.122" height="3.923"/>
      </g>
      <g id="组_2988" data-name="组 2988" transform="translate(18.343 11.457)">
        <rect id="矩形_2202" data-name="矩形 2202" class="cls-2" width="5.122" height="3.923" transform="translate(0 0)"/>
      </g>
      <g id="组_2989" data-name="组 2989" transform="translate(18.343 18.731)">
        <rect id="矩形_2203" data-name="矩形 2203" class="cls-2" width="5.122" height="3.923"/>
      </g>
      <g id="组_2990" data-name="组 2990" transform="translate(18.343 26.005)">
        <rect id="矩形_2204" data-name="矩形 2204" class="cls-2" width="5.122" height="3.923"/>
      </g>
    </g>
  </g>
</svg>
