<svg xmlns="http://www.w3.org/2000/svg" width="40" height="40" viewBox="0 0 40 40">
  <defs>
    <style>
      .cls-1 {
        fill: #0061ff;
      }

      .cls-2 {
        fill: none;
      }
    </style>
  </defs>
  <g id="sl_icon" transform="translate(-147.545 -1501.545)">
    <g id="组_2151" data-name="组 2151" transform="translate(153.088 1506.982)">
      <path id="路径_1767" data-name="路径 1767" class="cls-1" d="M3681.5,817.767c.032-.036.062-.072.093-.108h0a14.645,14.645,0,0,0-8.09-23.961h0c-.2-.042-.409-.077-.615-.11l-.108-.019c-.192-.03-.386-.052-.58-.074l-.154-.02c-.174-.017-.349-.029-.524-.04-.074-.005-.147-.013-.221-.017-.119-.006-.24-.006-.36-.009s-.262-.01-.4-.01a14.648,14.648,0,0,0-14.649,14.649v.006c0,.274.01.545.024.815,0,.055.008.109.012.163q.022.339.06.674a.981.981,0,0,0,.015.12c.03.244.066.486.106.727l.01.05q.07.4.16.785h0a14.649,14.649,0,0,0,14.071,11.3h12.885l-2.019-3.5C3680.95,818.716,3681.23,818.209,3681.5,817.767Zm-11.834-4.387h-7.95a1.551,1.551,0,0,1,0-3.1h7.95a1.551,1.551,0,1,1,0,3.1Zm9.716-7.572h-17.666a1.551,1.551,0,0,1,0-3.1h17.666a1.551,1.551,0,1,1,0,3.1Z" transform="translate(-3655.906 -793.396)"/>
    </g>
    <rect id="矩形_1699" data-name="矩形 1699" class="cls-2" width="40" height="40" transform="translate(147.545 1501.545)"/>
  </g>
</svg>
