<svg xmlns="http://www.w3.org/2000/svg" xmlns:xlink="http://www.w3.org/1999/xlink" width="538" height="76" viewBox="0 0 538 76">
  <defs>
    <style>
      .cls-1 {
        fill: url(#linear-gradient);
      }

      .cls-2 {
        fill: url(#linear-gradient-2);
      }

      .cls-3 {
        fill: url(#linear-gradient-3);
      }
    </style>
    <linearGradient id="linear-gradient" x1="0.081" y1="0.931" x2="0.926" y2="0.945" gradientUnits="objectBoundingBox">
      <stop offset="0" stop-color="#fce4c6"/>
      <stop offset="1" stop-color="#ebba94"/>
    </linearGradient>
    <linearGradient id="linear-gradient-2" x1="-0.139" y1="0.619" x2="0.661" y2="0.136" gradientUnits="objectBoundingBox">
      <stop offset="0" stop-color="#dca274"/>
      <stop offset="1" stop-color="#fccea9"/>
    </linearGradient>
    <linearGradient id="linear-gradient-3" x1="1" y1="0.615" x2="0.064" y2="0.054" gradientUnits="objectBoundingBox">
      <stop offset="0" stop-color="#fbd4a2"/>
      <stop offset="1" stop-color="#ffe2bc"/>
    </linearGradient>
  </defs>
  <g id="btbg_image" transform="translate(-106 -499)">
    <path id="路径_3863" data-name="路径 3863" class="cls-1" d="M2170.843,2072.2H1789.425l1.14,4.382,16.9,64.976a8.866,8.866,0,0,0,8.575,6.642h484.763a8.867,8.867,0,0,0,8.576-6.642l18.043-69.358Z" transform="translate(-1683.425 -1573.196)"/>
    <path id="路径_3864" data-name="路径 3864" class="cls-2" d="M2265.382,2072.2l18.436,69.276c1.131,4.249,7.268,4.422,8.427.18l.026-.1,18.083-69.358Z" transform="translate(-1666.354 -1573.196)"/>
    <path id="路径_3865" data-name="路径 3865" class="cls-3" d="M1944.4,2072.2l-18.436,69.276c-1.131,4.249-7.27,4.422-8.427.18l-.026-.1-18.083-69.358Z" transform="translate(-1793.425 -1573.196)"/>
  </g>
</svg>
