<svg xmlns="http://www.w3.org/2000/svg" width="65" height="36" viewBox="0 0 65 36">
  <defs>
    <style>
      .cls-1 {
        fill: #979eb3;
      }
    </style>
  </defs>
  <path id="ly_icon" class="cls-1" d="M22.031,57.077c-1.219,0-2.031-.615-2.031-1.538V48.462c0-.923.813-1.538,2.031-1.538a1.953,1.953,0,0,1,2.031,1.538v6.769c0,1.231-.812,1.846-2.031,1.846Zm8.531,6.769c-1.219,0-2.031-.615-2.031-1.538V41.692c0-.923.813-1.538,2.031-1.538s2.031.615,2.031,1.538V62.308C32.594,63.231,31.781,63.846,30.563,63.846Zm17.469-.615c-1.219,0-2.031-.615-2.031-1.538V42.615c0-.923.813-1.538,2.031-1.538s2.031.615,2.031,1.538V61.692A1.953,1.953,0,0,1,48.031,63.231ZM65.5,60.462c-1.219,0-2.031-.615-2.031-1.538V45.077c0-.923.813-1.538,2.031-1.538s2.031.615,2.031,1.538V58.923c0,.923-1.219,1.538-2.031,1.538ZM39.5,70c-1.219,0-2.031-.615-2.031-1.538V35.538c0-.923.813-1.538,2.031-1.538s2.031.615,2.031,1.538V68.769C41.531,69.385,40.719,70,39.5,70ZM74.031,57.385c-1.219,0-2.031-.615-2.031-1.538V48.154c0-.923.813-1.538,2.031-1.538s2.031.615,2.031,1.538v8c0,.615-.812,1.231-2.031,1.231Zm8.937-3.077c-1.219,0-2.031-.615-2.031-1.538V51.231c0-.923.813-1.538,2.031-1.538S85,50.308,85,51.231v1.538C85,53.692,84.188,54.308,82.969,54.308Zm-26,.923c-1.219,0-2.031-.615-2.031-1.538V50.615c0-.923.812-1.538,2.031-1.538S59,49.692,59,50.615v3.077C59,54.308,57.781,55.231,56.969,55.231Z" transform="translate(-20 -34)"/>
</svg>
