<svg xmlns="http://www.w3.org/2000/svg" width="148.001" height="148" viewBox="0 0 148.001 148">
  <defs>
    <style>
      .cls-1, .cls-3 {
        fill: #fff;
      }

      .cls-1 {
        stroke: #e0e3ec;
      }

      .cls-2 {
        fill: #0061ff;
      }

      .cls-4 {
        stroke: none;
      }

      .cls-5 {
        fill: none;
      }
    </style>
  </defs>
  <g id="logo" transform="translate(17236 16727.932)">
    <g id="矩形_1909" data-name="矩形 1909" class="cls-1" transform="translate(-17235.932 -16727.932)">
      <rect class="cls-4" width="147.865" height="148" rx="30"/>
      <rect class="cls-5" x="0.5" y="0.5" width="146.865" height="147" rx="29.5"/>
    </g>
    <path id="交叉_61" data-name="交叉 61" class="cls-2" d="M0,100.6V12.757q0-1.324.113-2.62L145.164,0A29.884,29.884,0,0,1,148,12.757V100.6a30.339,30.339,0,0,1-.181,3.313L3.161,114.013A29.88,29.88,0,0,1,0,100.6Z" transform="translate(-17236 -16710.605)"/>
    <g id="组_2569" data-name="组 2569" transform="matrix(0.998, -0.07, 0.07, 0.998, -17217.516, -16692.061)">
      <path id="路径_1125" data-name="路径 1125" class="cls-3" d="M14.285,9.447l1.768-3.875L3.239,5.64,4.032.014,49.619,0l-.832,5.6L28.772,5.563,27,9.438l18.809-.013-4.476,30.75L0,40.2,4.476,9.454ZM31.479,34.639,32.556,27.6l-20.138.014L11.34,34.654Zm-18.3-12.6,20.139-.014L34.4,15.1l-20.138.014Z" transform="translate(3.665 0.04)"/>
      <g id="组_1400" data-name="组 1400" transform="translate(54.987 0)">
        <path id="路径_1126" data-name="路径 1126" class="cls-3" d="M22.179,9.423h1.729l.533-3.809H22.768L23.514.049l-6.973,0-.746,5.565-2.176,0,.8-5.62L7.449,0l-.8,5.62H4.821L4.289,9.435H6.114L3.861,25.271,7.091,31.18,0,40.107,7.866,40.1l2.457-3.069L11.995,40.1l7.419-.005L14.957,31.23l5.081-6.361Zm-8.891,14L11.949,25.1l-.835-1.672,1.973-14,2.175,0Z" transform="translate(0 0.021)"/>
        <path id="路径_1127" data-name="路径 1127" class="cls-3" d="M29,15l.72-5.542-6.873,0L24.185,0,15.442.006,15.2,2.125,14.159,9.473H12.338L13.1,4.255l-6.828,0L4.116,19.043l6.829,0,.587-4.022h1.852l-.991,6.975L3.745,22l-.812,5.614,8.783-.006L10.733,34.6.73,34.6,0,40.182l25.369-.018.73-5.58-6.793,0L20.26,27.6l6.929,0L28,21.978l-6.918,0,.984-6.975Z" transform="translate(20.08 0)"/>
      </g>
      <g id="组_1401" data-name="组 1401" transform="translate(51.111 45.042)">
        <path id="路径_1128" data-name="路径 1128" class="cls-3" d="M8.011,22.341,11.177,0,3.869.005,0,27.5l5.575,0Z" transform="translate(0 3.209)"/>
        <path id="路径_1129" data-name="路径 1129" class="cls-3" d="M31.772,5.634,32.581,0,5,.02,4.194,5.654l9.539-.007-.548,3.872-9.428.007L0,36.124l7.363-.005,3-21.076h2.008L9.387,36.117,8.81,40.206l8.647-.006.577-4.089,2.985-21.076,2.14,0-.02.159L20.181,36.11l5.606,0L28.21,30.93l.827-5.865,2.206-15.56-9.412.007.548-3.872Z" transform="translate(17.148 0)"/>
        <path id="路径_1130" data-name="路径 1130" class="cls-3" d="M9.942.005l-.32,2.269L7.447,17.6,6.8,22.132l-.49,3.456L1.774,36.059,0,40.148l7.921-.006,1.633-4.089L13.687,25.7,17.329,0Z" transform="translate(2.997 0.041)"/>
      </g>
      <g id="组_1402" data-name="组 1402" transform="translate(0 45.082)">
        <path id="路径_1131" data-name="路径 1131" class="cls-3" d="M14.519,0,4.089,2.05.9,2.677,0,9.036l3.187-.6,1.577-.012L1.512,31.52l8.577-.006L13.622,6.358Z" transform="translate(0 8.603)"/>
        <path id="路径_1132" data-name="路径 1132" class="cls-3" d="M13.66,6.358,14.557,0,4.088,2.058.9,2.685,0,9.044l3.191-.628Z" transform="translate(1.195 0.125)"/>
        <path id="路径_1133" data-name="路径 1133" class="cls-3" d="M32.725,9.44l1.009-6.972-10.628.008L23.464,0l-8.63.006-.357,2.476L6.26,2.488,5.588,7.4l8.18-.006-.3,2.064L3.65,9.461l-.673,4.852,9.791-.007-.289,2.008L4.3,16.32l-.673,4.91,8.14-.006-.346,2.4-8.15.006L2.6,28.592l8.106-.006-.3,2.064-9.736.007L0,35.509,9.707,35.5l-.679,4.707,8.629-.006.382-2.648.3-2.059h0l2.81,0h0l8.606-.006.683-4.842v-.011l-11.4.008.3-2.064,11.015-.008.673-4.964-10.973.008v-.008l.009-.051.165-1.141.173-1.2,10.7-.008.01-.07.943-6.847h1.674L34.4,9.439ZM10.844,30.66H10.8V30.65h.041Zm.953-7.028h0v-.011h0Zm1.065-7.307h-.036v-.012h.036Zm.954-6.86h-.022V9.454h.022ZM23.8,16.306l-2.686,0L21.4,14.3l2.677,0Zm.953-6.86-2.649,0,.3-2.064,2.688,0Z" transform="translate(12.153 0)"/>
      </g>
    </g>
  </g>
</svg>
