<svg xmlns="http://www.w3.org/2000/svg" width="32" height="32" viewBox="0 0 32 32">
  <defs>
    <style>
      .cls-1 {
        fill: none;
      }

      .cls-2 {
        fill: #1cc699;
      }
    </style>
  </defs>
  <g id="bdwx_icon" transform="translate(-90 -736)">
    <rect id="矩形_1366" data-name="矩形 1366" class="cls-1" width="32" height="32" transform="translate(89.999 736)"/>
    <g id="微信" transform="translate(91.315 739.941)">
      <path id="联合_43" data-name="联合 43" class="cls-2" d="M23.461,22.486l-.149.042a10.359,10.359,0,0,1-2.8.38c-4.9,0-8.868-3.319-8.868-7.415l0,0c0-4.1,3.97-7.416,8.868-7.416S29.37,11.4,29.37,15.489a7.071,7.071,0,0,1-3.478,5.891l-.082.052.856,2.685ZM17.383,11.654a1.248,1.248,0,0,0-1.206,1.284v0a1.223,1.223,0,0,0,1.245,1.2h.039a1.246,1.246,0,0,0-.041-2.491Zm6.172,0a1.246,1.246,0,0,0-1.206,1.284v0a1.223,1.223,0,0,0,1.244,1.2h.039a1.246,1.246,0,0,0-.039-2.491ZM4.217,15.811l-.1-.061A8.368,8.368,0,0,1,0,8.779C0,3.931,4.7,0,10.5,0c5.25,0,9.6,3.224,10.373,7.438-.148-.011-.3-.011-.445-.011l0,0c-5.28,0-9.561,3.583-9.561,8.01a6.86,6.86,0,0,0,.333,2.093,12.343,12.343,0,0,1-4.025-.422L7,17.057,3.2,18.985Zm8.46-10.054a1.43,1.43,0,1,0,1.473-1.429h-.023A1.451,1.451,0,0,0,12.676,5.757Zm-7.21-.031A1.424,1.424,0,0,0,6.844,7.183h0A1.449,1.449,0,0,0,8.319,5.757a1.425,1.425,0,0,0-1.41-1.426H6.891A1.425,1.425,0,0,0,5.467,5.726Z" transform="translate(0 0)"/>
    </g>
  </g>
</svg>
