<svg xmlns="http://www.w3.org/2000/svg" xmlns:xlink="http://www.w3.org/1999/xlink" width="156" height="340" viewBox="0 0 156 340">
  <defs>
    <style>
      .cls-1 {
        fill: #fff;
        stroke: #707070;
      }

      .cls-2 {
        clip-path: url(#clip-path);
      }

      .cls-3 {
        fill: url(#linear-gradient);
      }
    </style>
    <clipPath id="clip-path">
      <rect id="矩形_5704" data-name="矩形 5704" class="cls-1" width="156" height="340" transform="translate(0 1285)"/>
    </clipPath>
    <linearGradient id="linear-gradient" x1="0.481" y1="0.033" x2="0.455" y2="1.072" gradientUnits="objectBoundingBox">
      <stop offset="0" stop-color="#fff" stop-opacity="0"/>
      <stop offset="1" stop-color="#3e85ff" stop-opacity="0.522"/>
    </linearGradient>
  </defs>
  <g id="bg1_icon" class="cls-2" transform="translate(0 -1285)">
    <path id="bg2_icon" class="cls-3" d="M5145,5381a191.43,191.43,0,0,1-38.291-3.86,188.909,188.909,0,0,1-67.939-28.589,190.55,190.55,0,0,1-68.838-83.6,188.966,188.966,0,0,1-11.071-35.665,191.812,191.812,0,0,1,0-76.582,188.953,188.953,0,0,1,28.589-67.94,190.559,190.559,0,0,1,83.594-68.838,189.041,189.041,0,0,1,35.666-11.071,191.862,191.862,0,0,1,76.583,0,188.992,188.992,0,0,1,67.94,28.589,190.561,190.561,0,0,1,68.837,83.594,189,189,0,0,1,11.071,35.667,191.883,191.883,0,0,1,0,76.582,188.975,188.975,0,0,1-28.589,67.939,190.548,190.548,0,0,1-83.595,68.839,189.065,189.065,0,0,1-35.665,11.07A191.44,191.44,0,0,1,5145,5381Zm0-328.518c-76.377,0-138.515,62.138-138.515,138.517s62.138,138.516,138.515,138.516,138.518-62.138,138.518-138.516S5221.379,5052.483,5145,5052.483Z" transform="translate(-5179 -3716)"/>
  </g>
</svg>
