<svg xmlns="http://www.w3.org/2000/svg" width="80" height="80" viewBox="0 0 80 80">
  <defs>
    <style>
      .cls-1 {
        fill: #2c6afa;
      }

      .cls-2 {
        fill: #fff;
      }
    </style>
  </defs>
  <g id="qd_icon" transform="translate(-32.286 -216.285)">
    <g id="tg_icon" transform="translate(31.903 215.903)">
      <circle id="椭圆_316" data-name="椭圆 316" class="cls-1" cx="40" cy="40" r="40" transform="translate(0.383 0.382)"/>
    </g>
    <path id="正确" class="cls-2" d="M20.289,30.467c1.686-3.747,3.485-7.495,5.434-10.943A102.717,102.717,0,0,1,32,9.519a52.819,52.819,0,0,1,5.115-6.5A11.055,11.055,0,0,1,39.57.956,13.828,13.828,0,0,1,42.53.319,29.98,29.98,0,0,1,45.734,0c.356,0,.543.131.543.412a.731.731,0,0,1-.187.506A11.879,11.879,0,0,1,44.947,2,73.076,73.076,0,0,0,34.6,14.99a102.361,102.361,0,0,0-9.369,17.932,27.619,27.619,0,0,1-2.117,4.5q-.562.787-3.6.787c-1.462,0-2.342-.15-2.623-.45a21.379,21.379,0,0,1-1.724-2.417,44.2,44.2,0,0,0-4.965-6.3Q8.8,27.562,8.8,26.794c0-.675.506-1.387,1.536-2.117a4.778,4.778,0,0,1,2.53-1.068,5.621,5.621,0,0,1,3.185,1.424,19.337,19.337,0,0,1,4.235,5.434Z" transform="translate(45.571 237.479)"/>
  </g>
</svg>
