<svg id="sx_icon" xmlns="http://www.w3.org/2000/svg" width="36" height="36" viewBox="0 0 36 36">
  <defs>
    <style>
      .cls-1 {
        fill: #fff;
        opacity: 0;
      }

      .cls-2 {
        fill: #5aa0f8;
      }
    </style>
  </defs>
  <g id="组_7338" data-name="组 7338">
    <rect id="矩形_202" data-name="矩形 202" class="cls-1" width="36" height="36"/>
    <path id="路径_228" data-name="路径 228" class="cls-2" d="M47.613,1390.541c0-.359-.028-.717-.062-1.076v-.023a9.766,9.766,0,0,0-.073-.992c-.079-.588-.152-1.171-.269-1.754-.157-.773-.331-1.547-.538-2.3a11.691,11.691,0,0,0-1.138-2.707,6.488,6.488,0,0,0-1.748-1.995,9.8,9.8,0,0,0-1.692-.986,13.515,13.515,0,0,0-2.169-.779,19.566,19.566,0,0,0-3.312-.616c-.656-.062-1.317-.14-1.978-.163-.347,0-.695,0-1.037.006q-.412-.009-.824,0c-.275.006-.544.022-.818.045-.381.017-.762.051-1.138.09-.179.017-.353.039-.532.062-.2.022-.386.045-.577.078-.14.022-.28.04-.415.062a17.185,17.185,0,0,0-2.712.633,11.917,11.917,0,0,0-2.651,1.166,6.348,6.348,0,0,0-1.681,1.434,9.1,9.1,0,0,0-1.115,1.844,15.217,15.217,0,0,0-.863,2.438,24.325,24.325,0,0,0-.678,3.973c-.062.661-.084,1.323-.1,1.99-.006.185-.006.37,0,.554s-.006.37,0,.555c.017.661.039,1.328.1,1.989a23.245,23.245,0,0,0,.678,3.968,15.541,15.541,0,0,0,.863,2.437,9.061,9.061,0,0,0,1.115,1.844,6.343,6.343,0,0,0,1.681,1.435,12.016,12.016,0,0,0,2.645,1.171,16.594,16.594,0,0,0,2.712.633c.14.022.281.039.415.062.19.033.386.056.577.078s.353.045.532.062c.376.039.757.068,1.138.09.275.022.543.033.818.045s.549.005.824,0c.348.005.689.005,1.037-.006.661-.017,1.317-.1,1.978-.163a19.43,19.43,0,0,0,3.312-.616,13.538,13.538,0,0,0,2.169-.779,9.143,9.143,0,0,0,1.692-.986,6.565,6.565,0,0,0,1.748-1.995,11.694,11.694,0,0,0,1.138-2.707c.213-.762.381-1.53.538-2.3.118-.578.2-1.166.269-1.754a9.781,9.781,0,0,0,.073-.992v-.022c.033-.359.062-.717.062-1.076,0-.325,0-.656-.006-.98.011-.314.011-.645.011-.97Zm-12.4,7.644H27.16a1.294,1.294,0,1,1,0-2.589h8.058a1.294,1.294,0,0,1,0,2.589Zm5.649-5.032H27.109a1.294,1.294,0,1,1,0-2.589H40.867a1.294,1.294,0,1,1,0,2.589Zm0-5.139H27.109a1.294,1.294,0,1,1,0-2.589H40.867a1.294,1.294,0,1,1,0,2.589Z" transform="translate(-15.489 -1373.148)"/>
  </g>
</svg>
