<svg xmlns="http://www.w3.org/2000/svg" width="36" height="36" viewBox="0 0 36 36">
  <defs>
    <style>
      .cls-1, .cls-2 {
        fill: #5aa0f8;
      }

      .cls-1 {
        opacity: 0;
      }

      .cls-3 {
        fill: none;
      }
    </style>
  </defs>
  <g id="dh_icon" transform="translate(0.158)">
    <g id="组_7339" data-name="组 7339">
      <rect id="矩形_201" data-name="矩形 201" class="cls-1" width="36" height="36" transform="translate(-0.158)"/>
      <g id="dh_icon-2" data-name="dh_icon" transform="translate(-471.901 -917.807)">
        <g id="组_4150" data-name="组 4150" transform="translate(476.743 922.852)">
          <path id="路径_2772" data-name="路径 2772" class="cls-2" d="M581.131,1315.56a1.091,1.091,0,0,1-1.335.6,33.137,33.137,0,0,1-21.523-21.4,1.091,1.091,0,0,1,.6-1.341l1.871-.8,2.3-.984a1.008,1.008,0,0,1,1.329.531,33.107,33.107,0,0,0,2.592,4.975,1.132,1.132,0,0,1-.052,1.3l-1.456,1.885a1.149,1.149,0,0,0-.028,1.376,33.436,33.436,0,0,0,7.422,7.368,1.146,1.146,0,0,0,1.367-.032l1.9-1.463a1.131,1.131,0,0,1,1.3-.056,32.668,32.668,0,0,0,4.965,2.547,1.009,1.009,0,0,1,.538,1.332l-.977,2.283Z" transform="translate(-558.219 -1290.237)"/>
          <g id="组_4149" data-name="组 4149" transform="translate(15.977)">
            <path id="路径_2773" data-name="路径 2773" class="cls-2" d="M594.831,1299.465a.9.9,0,0,0-1.013.743l-.019.11a.9.9,0,0,0,.755,1.049,2.9,2.9,0,0,1,2.477,3.33.9.9,0,0,0,.788,1.024l.111.013a.905.905,0,0,0,1-.757,4.818,4.818,0,0,0-4.1-5.513Z" transform="translate(-593.785 -1294.587)"/>
            <path id="路径_2774" data-name="路径 2774" class="cls-2" d="M603.036,1292.44a9.727,9.727,0,0,0-6.307-3.813.907.907,0,0,0-1.035.741l-.02.116a.907.907,0,0,0,.758,1.049,7.831,7.831,0,0,1,6.534,8.78.908.908,0,0,0,.787,1.029l.118.014a.907.907,0,0,0,1.007-.778A9.73,9.73,0,0,0,603.036,1292.44Z" transform="translate(-594.818 -1288.615)"/>
          </g>
        </g>
        <rect id="矩形_3310" data-name="矩形 3310" class="cls-3" width="26" height="26" transform="translate(476.806 922.806)"/>
      </g>
    </g>
  </g>
</svg>
