<svg xmlns="http://www.w3.org/2000/svg" width="30" height="48" viewBox="0 0 30 48">
  <defs>
    <style>
      .cls-1 {
        fill: #0061ff;
      }

      .cls-2 {
        fill: #fff;
      }
    </style>
  </defs>
  <g id="xz_icon" transform="translate(-657 -675)">
    <path id="矩形_1713" data-name="矩形 1713" class="cls-1" d="M0,0H22a8,8,0,0,1,8,8V40a8,8,0,0,1-8,8H0a0,0,0,0,1,0,0V0A0,0,0,0,1,0,0Z" transform="translate(657 675)"/>
    <path id="zk_icon" class="cls-2" d="M8.775.763a1,1,0,0,1,1.45,0L17.4,8.311A1,1,0,0,1,16.671,10H2.329A1,1,0,0,1,1.6,8.311Z" transform="translate(681 704) rotate(180)"/>
  </g>
</svg>
