<svg xmlns="http://www.w3.org/2000/svg" width="30" height="30" viewBox="0 0 30 30">
  <defs>
    <style>
      .cls-1 {
        fill: #888d98;
      }
    </style>
  </defs>
  <path id="yw_icon" class="cls-1" d="M20.123,4.864a15,15,0,1,0,15,15,15.02,15.02,0,0,0-15-15Zm0,27.851A12.847,12.847,0,1,1,32.971,19.867,12.861,12.861,0,0,1,20.123,32.714Zm0-21.487a4.694,4.694,0,0,0-4.708,4.67,1.079,1.079,0,0,0,2.151,0,2.512,2.512,0,0,1,2.557-2.517,2.57,2.57,0,0,1,2.557,2.578c0,.538-.77,1.308-1.446,1.985-1.025,1.024-2.189,2.186-2.189,3.742v1.537a1.079,1.079,0,1,0,2.157,0V21.681c0-.663.79-1.456,1.554-2.218.974-.972,2.079-2.077,2.079-3.5a4.731,4.731,0,0,0-4.712-4.733ZM18.508,28a1.615,1.615,0,1,0,1.615-1.615A1.615,1.615,0,0,0,18.508,28Z" transform="translate(-5.12 -4.864)"/>
</svg>
