<?xml version="1.0" standalone="no"?><!DOCTYPE svg PUBLIC "-//W3C//DTD SVG 1.1//EN" "http://www.w3.org/Graphics/SVG/1.1/DTD/svg11.dtd"><svg t="1642583085143" class="icon" viewBox="0 0 1141 1024" version="1.1" xmlns="http://www.w3.org/2000/svg" p-id="2149" xmlns:xlink="http://www.w3.org/1999/xlink" width="22.28515625" height="20"><defs><style type="text/css"></style></defs><path d="M306.238318 403.748571c1.287314-123.757714 77.297371-203.776 195.320685-204.829257 98.772114-0.877714 197.544229-1.755429 296.228572 0.585143 35.371886 0.877714 42.218057-12.960914 37.712457-45.377828-12.141714-87.478857-83.207314-152.546743-173.904457-153.219658C501.120146-0.292571 340.644718-0.292571 180.227803 0.8192 74.872832 1.521371 3.982775 73.962057 1.349632 183.296c-1.8432 75.424914-1.755429 150.966857 0 226.391771 2.194286 92.3648 51.6096 156.818286 137.8304 177.005715 26.975086 6.290286 31.305143 13.341257 20.655543 38.824228-19.368229 46.431086-36.015543 94.120229-53.833143 141.312l10.825143 8.894172c50.527086-32.797257 100.205714-67.1744 151.990857-97.748115 27.8528-16.471771 39.350857-35.84 38.034286-69.924571-2.603886-67.9936-1.316571-136.192-0.585143-204.302629z m681.252571-166.765714a11523.364571 11523.364571 0 0 0-492.1344-0.058514c-89.614629 1.8432-148.626286 64.746057-152.195657 157.9008-3.510857 91.925943-3.6864 184.232229 0.087771 276.158171 4.037486 97.718857 67.437714 156.584229 162.962286 158.1056 52.896914 0.8192 105.910857 2.223543 158.72-0.526628 40.725943-2.135771 74.5472 9.186743 108.602514 32.475428 78.175086 53.540571 158.602971 103.424 250.792229 162.962286-16.676571-44.2368-27.560229-72.879543-38.2976-101.5808-10.766629-28.8768-21.386971-57.812114-32.914286-89.000229 9.947429-1.755429 16.5888-3.510857 23.288686-4.037485 109.714286-8.279771 162.728229-66.033371 163.84-180.370286 0.731429-81.042286 1.4336-162.084571-0.234057-243.068343-2.106514-100.673829-58.514286-166.882743-152.517486-168.96z" p-id="2150"></path></svg>