<svg xmlns="http://www.w3.org/2000/svg" width="56" height="56" viewBox="0 0 56 56"><defs><style>.a{fill:none;}.b{fill:#222;}</style></defs><g transform="translate(-0.389)"><rect class="a" width="56" height="56" transform="translate(0.389)"/><g transform="translate(3.736 3.507)"><path class="b" d="M1565.678,1472.56a1.827,1.827,0,0,0,1.827-1.827v-8.626a1.827,1.827,0,0,0-3.653,0v8.626A1.826,1.826,0,0,0,1565.678,1472.56Z" transform="translate(-1550.518 -1448.718)"/><path class="b" d="M1590.786,1472.56a1.827,1.827,0,0,0,1.827-1.827v-8.626a1.827,1.827,0,0,0-3.654,0v8.626A1.826,1.826,0,0,0,1590.786,1472.56Z" transform="translate(-1557.28 -1448.718)"/><path class="b" d="M1569.912,1444.457a24.308,24.308,0,1,0,24.308,24.309A24.336,24.336,0,0,0,1569.912,1444.457Zm0,44.963a20.655,20.655,0,1,1,20.655-20.655A20.677,20.677,0,0,1,1569.912,1489.42Z" transform="translate(-1545.604 -1444.457)"/><path class="b" d="M1585.273,1483.444a1.826,1.826,0,0,0-1.827,1.827c0,3.92-4.207,7.108-9.378,7.108s-9.378-3.188-9.378-7.108a1.827,1.827,0,0,0-3.653,0c0,5.934,5.846,10.762,13.032,10.762s13.032-4.828,13.032-10.762A1.826,1.826,0,0,0,1585.273,1483.444Z" transform="translate(-1549.76 -1454.957)"/></g></g></svg>