<svg xmlns="http://www.w3.org/2000/svg" xmlns:xlink="http://www.w3.org/1999/xlink" width="140" height="55" viewBox="0 0 140 55">
  <defs>
    <style>
      .cls-1 {
        fill: url(#linear-gradient);
      }

      .cls-2, .cls-4 {
        fill: #fff;
      }

      .cls-2 {
        font-size: 26px;
        font-family: PingFang SC-Medium, PingFang SC;
        font-weight: 500;
      }

      .cls-3 {
        fill: url(#linear-gradient-2);
      }

      .cls-5 {
        filter: url(#电话);
      }
    </style>
    <linearGradient id="linear-gradient" x1="1" y1="0.594" x2="0" y2="0.602" gradientUnits="objectBoundingBox">
      <stop offset="0" stop-color="#2a68f9"/>
      <stop offset="1" stop-color="#5191ff"/>
    </linearGradient>
    <filter id="电话" x="59" y="6" width="64" height="49" filterUnits="userSpaceOnUse">
      <feOffset dy="3" input="SourceAlpha"/>
      <feGaussianBlur stdDeviation="2" result="blur"/>
      <feFlood flood-color="#07028d" flood-opacity="0.22"/>
      <feComposite operator="in" in2="blur"/>
      <feComposite in="SourceGraphic"/>
    </filter>
    <linearGradient id="linear-gradient-2" x1="0.136" y1="0.195" x2="0.809" y2="0.894" gradientUnits="objectBoundingBox">
      <stop offset="0" stop-color="#478dff"/>
      <stop offset="1" stop-color="#306efb"/>
    </linearGradient>
  </defs>
  <g id="dh_icon" transform="translate(3696 -9577)">
    <path id="矩形_3079" data-name="矩形 3079" class="cls-1" d="M0,0H95a24,24,0,0,1,24,24v0A24,24,0,0,1,95,48H0a0,0,0,0,1,0,0V0A0,0,0,0,1,0,0Z" transform="translate(-3675 9580)"/>
    <g class="cls-5" transform="matrix(1, 0, 0, 1, -3696, 9577)">
      <text id="电话-2" data-name="电话" class="cls-2" transform="translate(65 37)"><tspan x="0" y="0">电话</tspan></text>
    </g>
    <circle id="椭圆_313" data-name="椭圆 313" class="cls-3" cx="27" cy="27" r="27" transform="translate(-3696 9577)"/>
    <g id="组_3797" data-name="组 3797" transform="translate(-3682.233 9591)">
      <path id="路径_2370" data-name="路径 2370" class="cls-4" d="M890.01,1408.761a1.1,1.1,0,0,1-1.354.616,33.141,33.141,0,0,1-9.142-4.547,33.783,33.783,0,0,1-12.681-17.274,1.114,1.114,0,0,1,.612-1.367l1.9-.817,2.327-1a1.02,1.02,0,0,1,1.348.542,33.731,33.731,0,0,0,2.629,5.074,1.161,1.161,0,0,1-.053,1.328l-1.476,1.923a1.176,1.176,0,0,0-.028,1.4,33.983,33.983,0,0,0,7.525,7.515,1.156,1.156,0,0,0,1.387-.033l1.921-1.492a1.143,1.143,0,0,1,1.314-.057,33.133,33.133,0,0,0,5.034,2.6,1.031,1.031,0,0,1,.545,1.358l-.99,2.328Z" transform="translate(-866.779 -1382.964)"/>
      <g id="组_3499" data-name="组 3499" transform="translate(16.343)">
        <path id="路径_2371" data-name="路径 2371" class="cls-4" d="M903.389,1392.188a.9.9,0,0,0-1.011.741l-.019.11a.9.9,0,0,0,.753,1.047,2.89,2.89,0,0,1,2.471,3.321.9.9,0,0,0,.786,1.021l.111.014a.9.9,0,0,0,1-.756,4.806,4.806,0,0,0-4.093-5.5Z" transform="translate(-902.346 -1387.322)"/>
        <path id="路径_2372" data-name="路径 2372" class="cls-4" d="M911.578,1385.154a9.7,9.7,0,0,0-6.292-3.8.9.9,0,0,0-1.032.738l-.02.116a.906.906,0,0,0,.757,1.047,7.81,7.81,0,0,1,6.517,8.758.906.906,0,0,0,.785,1.026l.118.014a.9.9,0,0,0,1-.777A9.705,9.705,0,0,0,911.578,1385.154Z" transform="translate(-903.381 -1381.339)"/>
      </g>
    </g>
  </g>
</svg>
