<svg xmlns="http://www.w3.org/2000/svg" width="66" height="66" viewBox="0 0 66 66">
  <defs>
    <style>
      .cls-1 {
        fill: none;
      }

      .cls-2 {
        fill: #fff;
      }

      .cls-3, .cls-4 {
        stroke: none;
      }

      .cls-4 {
        fill: #fff;
      }
    </style>
  </defs>
  <g id="gb_icon" transform="translate(6640 10395)">
    <g id="路径_684" data-name="路径 684" class="cls-1" transform="translate(-6640 -10395)">
      <path class="cls-3" d="M33,0A33,33,0,1,1,0,33,33,33,0,0,1,33,0Z"/>
      <path class="cls-4" d="M 33 3 C 28.94869995117188 3 25.02017593383789 3.792778015136719 21.32356643676758 5.356311798095703 C 17.75154495239258 6.867156982421875 14.54291152954102 9.030677795410156 11.78680038452148 11.78680038452148 C 9.030677795410156 14.54291152954102 6.867156982421875 17.75154495239258 5.356311798095703 21.32356643676758 C 3.792778015136719 25.02017593383789 3 28.94869995117188 3 33 C 3 37.05130004882813 3.792778015136719 40.97982025146484 5.356311798095703 44.67643356323242 C 6.867156982421875 48.24845504760742 9.030677795410156 51.45708847045898 11.78680038452148 54.21319961547852 C 14.54291152954102 56.96932220458984 17.75154495239258 59.13284301757813 21.32356643676758 60.6436882019043 C 25.02017593383789 62.20722198486328 28.94869995117188 63 33 63 C 37.05130004882813 63 40.97982025146484 62.20722198486328 44.67643356323242 60.6436882019043 C 48.24845504760742 59.13284301757813 51.45708847045898 56.96932220458984 54.21319961547852 54.21319961547852 C 56.96932220458984 51.45708847045898 59.13284301757813 48.24845504760742 60.6436882019043 44.67643356323242 C 62.20722198486328 40.97982025146484 63 37.05130004882813 63 33 C 63 28.94869995117188 62.20722198486328 25.02017593383789 60.6436882019043 21.32356643676758 C 59.13284301757813 17.75154495239258 56.96932220458984 14.54291152954102 54.21319961547852 11.78680038452148 C 51.45708847045898 9.030677795410156 48.24845504760742 6.867156982421875 44.67643356323242 5.356311798095703 C 40.97982025146484 3.792778015136719 37.05130004882813 3 33 3 M 33 0 C 51.22539901733398 0 66 14.77460098266602 66 33 C 66 51.22539901733398 51.22539901733398 66 33 66 C 14.77460098266602 66 0 51.22539901733398 0 33 C 0 14.77460098266602 14.77460098266602 0 33 0 Z"/>
    </g>
    <path id="路径_672" data-name="路径 672" class="cls-2" d="M2213.485,979.583,2223.8,969.27a1.574,1.574,0,0,0-2.226-2.226l-10.313,10.313-10.313-10.313a1.574,1.574,0,0,0-2.226,2.226l10.313,10.313L2198.72,989.9a1.574,1.574,0,0,0,2.226,2.226l10.313-10.313,10.313,10.313a1.574,1.574,0,0,0,2.226-2.226Z" transform="translate(-8818.259 -11341.583)"/>
  </g>
</svg>
