<svg xmlns="http://www.w3.org/2000/svg" width="28" height="28" viewBox="0 0 28 28">
  <defs>
    <style>
      .cls-1 {
        fill: #0061ff;
      }

      .cls-2 {
        fill: none;
      }
    </style>
  </defs>
  <g id="dh_icon" transform="translate(-476.371 -922.371)">
    <g id="组_4150" data-name="组 4150" transform="translate(476.759 922.872)">
      <path id="路径_2772" data-name="路径 2772" class="cls-1" d="M582.094,1316.569a1.137,1.137,0,0,1-1.391.63,34.53,34.53,0,0,1-22.429-22.295,1.136,1.136,0,0,1,.628-1.4l1.95-.835,2.392-1.026a1.051,1.051,0,0,1,1.385.553,34.505,34.505,0,0,0,2.7,5.184,1.18,1.18,0,0,1-.054,1.356l-1.517,1.964a1.2,1.2,0,0,0-.029,1.434,34.839,34.839,0,0,0,7.734,7.678,1.194,1.194,0,0,0,1.425-.033l1.975-1.525a1.179,1.179,0,0,1,1.35-.058,34.045,34.045,0,0,0,5.174,2.654,1.052,1.052,0,0,1,.561,1.387l-1.018,2.379Z" transform="translate(-558.219 -1290.182)"/>
      <g id="组_4149" data-name="组 4149" transform="translate(16.649)">
        <path id="路径_2773" data-name="路径 2773" class="cls-1" d="M594.875,1299.466a.942.942,0,0,0-1.056.774l-.02.115a.937.937,0,0,0,.787,1.094,3.019,3.019,0,0,1,2.581,3.47.936.936,0,0,0,.822,1.067l.116.014a.943.943,0,0,0,1.046-.789,5.021,5.021,0,0,0-4.275-5.745Z" transform="translate(-593.785 -1294.382)"/>
        <path id="路径_2774" data-name="路径 2774" class="cls-1" d="M603.346,1292.6a10.136,10.136,0,0,0-6.573-3.974.945.945,0,0,0-1.078.772l-.021.121a.946.946,0,0,0,.79,1.094,8.16,8.16,0,0,1,6.809,9.149.946.946,0,0,0,.82,1.072l.123.014a.945.945,0,0,0,1.049-.811A10.139,10.139,0,0,0,603.346,1292.6Z" transform="translate(-594.783 -1288.615)"/>
      </g>
    </g>
    <rect id="矩形_3310" data-name="矩形 3310" class="cls-2" width="28" height="28" transform="translate(476.371 922.371)"/>
  </g>
</svg>
