<svg xmlns="http://www.w3.org/2000/svg" xmlns:xlink="http://www.w3.org/1999/xlink" width="30" height="30" viewBox="0 0 30 30">
  <defs>
    <style>
      .cls-1, .cls-3 {
        fill: #fff;
      }

      .cls-1 {
        stroke: #707070;
      }

      .cls-2 {
        clip-path: url(#clip-path);
      }
    </style>
    <clipPath id="clip-path">
      <rect id="矩形_6085" data-name="矩形 6085" class="cls-1" width="30" height="30" transform="translate(-21910 -17324)"/>
    </clipPath>
  </defs>
  <g id="dh_icon" class="cls-2" transform="translate(21910 17324)">
    <g id="组_6586" data-name="组 6586" transform="translate(-24109.537 -19089.258)">
      <path id="路径_4416" data-name="路径 4416" class="cls-3" d="M2243.823,1780.691a4.3,4.3,0,0,1,1.461,2.462.868.868,0,0,0,.85.7.85.85,0,0,0,.173-.018.866.866,0,0,0,.678-1.022,6.08,6.08,0,0,0-5.79-4.871h-.024a.868.868,0,0,0-.023,1.735A4.3,4.3,0,0,1,2243.823,1780.691Z" transform="translate(-22.514 -6.046)"/>
      <path id="路径_4417" data-name="路径 4417" class="cls-3" d="M2251.8,1775.748a10.721,10.721,0,0,0-10.088-8.489.858.858,0,0,0-.9.836.868.868,0,0,0,.835.9,8.984,8.984,0,0,1,8.453,7.113.868.868,0,0,0,.848.688.857.857,0,0,0,.18-.019A.868.868,0,0,0,2251.8,1775.748Z" transform="translate(-22.8)"/>
      <path id="路径_4418" data-name="路径 4418" class="cls-3" d="M2225.853,1786.136a30.864,30.864,0,0,1-4.68-2.359,1.977,1.977,0,0,0-2.248.119l-1.828,1.433a.245.245,0,0,1-.289.016,31.593,31.593,0,0,1-7.058-6.9.245.245,0,0,1,.011-.293l1.4-1.84a1.975,1.975,0,0,0,.079-2.259,31.343,31.343,0,0,1-2.472-4.655,1.859,1.859,0,0,0-1.031-1.007,1.831,1.831,0,0,0-1.418.024l-3.909,1.709a3.135,3.135,0,0,0-1.675,3.961,37.858,37.858,0,0,0,4.534,8.736,33.05,33.05,0,0,0,15.889,11.844,3.128,3.128,0,0,0,3.915-1.75l1.814-4.34a1.829,1.829,0,0,0,0-1.422A1.862,1.862,0,0,0,2225.853,1786.136Zm-.57,1.767-1.814,4.343a1.4,1.4,0,0,1-1.743.779,31.37,31.37,0,0,1-15.053-11.222,36.133,36.133,0,0,1-4.312-8.32,1.4,1.4,0,0,1,.741-1.77l3.911-1.71a.1.1,0,0,1,.043-.01.114.114,0,0,1,.04.008.139.139,0,0,1,.074.076,33.1,33.1,0,0,0,2.61,4.914.232.232,0,0,1,0,.268l-1.4,1.839a1.99,1.99,0,0,0-.023,2.378,33.3,33.3,0,0,0,7.448,7.285,1.99,1.99,0,0,0,2.364-.066l1.827-1.433a.231.231,0,0,1,.267-.007,32.677,32.677,0,0,0,4.943,2.492.137.137,0,0,1,.078.074A.1.1,0,0,1,2225.283,1787.9Z" transform="translate(0 -0.566)"/>
    </g>
  </g>
</svg>
