<svg xmlns="http://www.w3.org/2000/svg" xmlns:xlink="http://www.w3.org/1999/xlink" width="64.122" height="64" viewBox="0 0 64.122 64">
  <defs>
    <style>
      .cls-1, .cls-2 {
        fill: #fff;
      }

      .cls-1 {
        stroke: rgba(0,0,0,0);
        stroke-miterlimit: 10;
        opacity: 0.4;
      }

      .cls-3 {
        fill: none;
      }

      .cls-4 {
        filter: url(#路径_2489);
      }

      .cls-5 {
        filter: url(#联合_66);
      }
    </style>
    <filter id="联合_66" x="12.185" y="18.169" width="43.746" height="44.294" filterUnits="userSpaceOnUse">
      <feOffset dy="2" input="SourceAlpha"/>
      <feGaussianBlur stdDeviation="2" result="blur"/>
      <feFlood flood-color="#1639ac" flood-opacity="0.157"/>
      <feComposite operator="in" in2="blur"/>
      <feComposite in="SourceGraphic"/>
    </filter>
    <filter id="路径_2489" x="0" y="5.512" width="51.357" height="52.226" filterUnits="userSpaceOnUse">
      <feOffset dy="2" input="SourceAlpha"/>
      <feGaussianBlur stdDeviation="2" result="blur-2"/>
      <feFlood flood-color="#1639ac" flood-opacity="0.157"/>
      <feComposite operator="in" in2="blur-2"/>
      <feComposite in="SourceGraphic"/>
    </filter>
  </defs>
  <g id="twzx_icon" transform="translate(-45.878 -478)">
    <g id="组_4925" data-name="组 4925" transform="translate(2.316 -13.629)">
      <g class="cls-5" transform="matrix(1, 0, 0, 1, 43.56, 491.63)">
        <path id="联合_66-2" data-name="联合 66" class="cls-1" d="M17.306,31.273a20.361,20.361,0,0,1-3.5-.457c-.679-.154-1.359-.282-2.022-.479-.35-.1-.689-.214-1.035-.331-.276-.084-.549-.174-.822-.267s-.532-.2-.8-.311c-.373-.147-.743-.3-1.106-.457-.173-.077-.339-.156-.509-.234s-.37-.172-.551-.267c-.125-.066-.259-.128-.391-.2a17.232,17.232,0,0,1-2.5-1.511A12.674,12.674,0,0,1,1.82,24.731a6.672,6.672,0,0,1-1.21-1.976,9.644,9.644,0,0,1-.512-2.2,16.28,16.28,0,0,1-.072-2.716,24.56,24.56,0,0,1,.608-4.181c.153-.681.346-1.354.543-2.02.056-.185.113-.372.179-.553s.115-.372.181-.555c.232-.66.469-1.314.744-1.954A25.468,25.468,0,0,1,4.242,4.826,15.94,15.94,0,0,1,5.89,2.673,9.5,9.5,0,0,1,7.6,1.192,6.62,6.62,0,0,1,9.737.306,12.552,12.552,0,0,1,12.754,0,17.852,17.852,0,0,1,15.66.25c.142.02.287.049.432.073.2.027.4.068.6.108s.367.069.551.112c.388.082.777.172,1.163.28.279.066.553.137.828.22s.55.174.822.267c.342.106.689.219,1.033.331.653.238,1.285.531,1.918.805a20.47,20.47,0,0,1,3.1,1.689,14.205,14.205,0,0,1,1.909,1.482A10.41,10.41,0,0,1,29.382,7.15a6.816,6.816,0,0,1,1.095,2.56,12.194,12.194,0,0,1,.258,3.072c-.037.824-.116,1.65-.209,2.474-.073.62-.187,1.226-.3,1.839-.064.344-.153.681-.25,1.014l-.008.022c-.081.37-.169.737-.286,1.1-.106.324-.211.653-.325.964s-.205.655-.313.981c-.114.359-.258.706-.408,1.054l-.008.022a9.683,9.683,0,0,1-.394.968c-.263.563-.53,1.125-.836,1.663-.4.723-.822,1.434-1.278,2.126a12.29,12.29,0,0,1-2.011,2.333,6.873,6.873,0,0,1-2.388,1.425,9.521,9.521,0,0,1-2.006.436,13.343,13.343,0,0,1-1.608.095Q17.708,31.294,17.306,31.273Z" transform="translate(18.68 22.67)"/>
      </g>
      <g class="cls-4" transform="matrix(1, 0, 0, 1, 43.56, 491.63)">
        <path id="路径_2489-2" data-name="路径 2489" class="cls-2" d="M247.627,1308.267h0c0-.5-.039-1-.086-1.506v-.031a13.689,13.689,0,0,0-.1-1.388c-.11-.824-.212-1.639-.376-2.454-.22-1.082-.463-2.165-.753-3.224a16.372,16.372,0,0,0-1.592-3.788,9.079,9.079,0,0,0-2.447-2.791,13.743,13.743,0,0,0-2.368-1.38,18.9,18.9,0,0,0-3.035-1.09,27.353,27.353,0,0,0-4.635-.863c-.917-.086-1.843-.2-2.768-.227-.486,0-.972,0-1.451.007q-.576-.011-1.153,0c-.384.008-.761.032-1.145.063-.533.023-1.066.071-1.592.125-.251.024-.494.055-.745.086-.274.032-.541.063-.807.11-.2.031-.392.054-.581.086a24.006,24.006,0,0,0-3.8.886,16.7,16.7,0,0,0-3.709,1.631,8.872,8.872,0,0,0-2.352,2.007,12.7,12.7,0,0,0-1.561,2.58,21.255,21.255,0,0,0-1.208,3.411,34.019,34.019,0,0,0-.949,5.56c-.086.926-.117,1.851-.141,2.784-.008.258-.008.518,0,.776-.008.258-.008.518,0,.776.024.925.055,1.858.141,2.784a32.472,32.472,0,0,0,.949,5.552,21.758,21.758,0,0,0,1.208,3.411,12.7,12.7,0,0,0,1.561,2.58,8.869,8.869,0,0,0,2.352,2.007,16.808,16.808,0,0,0,3.7,1.639,23.174,23.174,0,0,0,3.8.886c.2.031.392.055.581.086.267.047.541.079.807.11.251.031.494.062.745.086.525.054,1.059.094,1.592.125.384.032.761.047,1.145.063s.769.008,1.153,0c.486.008.964.008,1.451-.008.926-.023,1.843-.141,2.768-.228a27.283,27.283,0,0,0,4.635-.863,18.921,18.921,0,0,0,3.035-1.09,12.8,12.8,0,0,0,2.368-1.38,9.179,9.179,0,0,0,2.447-2.792,16.353,16.353,0,0,0,1.592-3.787c.3-1.067.533-2.141.752-3.223.165-.808.275-1.63.377-2.454a13.506,13.506,0,0,0,.1-1.388v-.031c.047-.5.086-1,.086-1.506,0-.455,0-.917-.008-1.373C247.627,1309.184,247.627,1308.722,247.627,1308.267Zm-28.741-3.225a2.483,2.483,0,1,1,2.484-2.483A2.483,2.483,0,0,1,218.886,1305.042ZM236.055,1322h-9.495a4.525,4.525,0,0,1-4.16-6.778l2.519-4.1a2.543,2.543,0,0,1,4.265,0l2.007,3.269,2.771-5.532a2.531,2.531,0,0,1,4.455,0l2.772,5.534C242.962,1317.93,240.216,1322,236.055,1322Z" transform="translate(-202.27 -1280.01)"/>
      </g>
    </g>
    <rect id="矩形_4395" data-name="矩形 4395" class="cls-3" width="64" height="64" transform="translate(46 478)"/>
  </g>
</svg>
