<svg xmlns="http://www.w3.org/2000/svg" xmlns:xlink="http://www.w3.org/1999/xlink" width="64" height="64" viewBox="0 0 64 64">
  <defs>
    <style>
      .cls-1, .cls-2 {
        fill: #fff;
      }

      .cls-2 {
        opacity: 0.5;
      }

      .cls-3 {
        fill: none;
      }

      .cls-4 {
        filter: url(#路径_2494);
      }

      .cls-5 {
        filter: url(#路径_2493);
      }

      .cls-6 {
        filter: url(#路径_2492);
      }
    </style>
    <filter id="路径_2492" x="8.573" y="4" width="47.285" height="51.945" filterUnits="userSpaceOnUse">
      <feOffset dy="2" input="SourceAlpha"/>
      <feGaussianBlur stdDeviation="2" result="blur"/>
      <feFlood flood-color="#1639ac" flood-opacity="0.157"/>
      <feComposite operator="in" in2="blur"/>
      <feComposite in="SourceGraphic"/>
    </filter>
    <filter id="路径_2493" x="6.973" y="37.45" width="26.373" height="25.763" filterUnits="userSpaceOnUse">
      <feOffset dy="2" input="SourceAlpha"/>
      <feGaussianBlur stdDeviation="2" result="blur-2"/>
      <feFlood flood-color="#1639ac" flood-opacity="0.157"/>
      <feComposite operator="in" in2="blur-2"/>
      <feComposite in="SourceGraphic"/>
    </filter>
    <filter id="路径_2494" x="31.083" y="37.45" width="26.374" height="25.763" filterUnits="userSpaceOnUse">
      <feOffset dy="2" input="SourceAlpha"/>
      <feGaussianBlur stdDeviation="2" result="blur-3"/>
      <feFlood flood-color="#1639ac" flood-opacity="0.157"/>
      <feComposite operator="in" in2="blur-3"/>
      <feComposite in="SourceGraphic"/>
    </filter>
  </defs>
  <g id="lvsr_icon" transform="translate(-514 -478)">
    <g id="组_3664" data-name="组 3664" transform="translate(526.973 486)">
      <g class="cls-6" transform="matrix(1, 0, 0, 1, -12.97, -8)">
        <path id="路径_2492-2" data-name="路径 2492" class="cls-1" d="M1250.3,1438.752l-15.065-8.7a2.576,2.576,0,0,0-2.578,0l-15.064,8.7a2.577,2.577,0,0,0-1.289,2.232v17.394a2.579,2.579,0,0,0,1.289,2.233l15.064,8.7a2.581,2.581,0,0,0,2.578,0l15.065-8.7a2.578,2.578,0,0,0,1.289-2.233v-17.394A2.577,2.577,0,0,0,1250.3,1438.752Zm-9.044,7.618-2.6,2.69a2.15,2.15,0,0,0-.577,1.841l.6,3.713a.444.444,0,0,1-.65.462l-3.063-1.656a2.15,2.15,0,0,0-2.045,0l-3.062,1.656a.444.444,0,0,1-.649-.462l.6-3.713a2.15,2.15,0,0,0-.577-1.841l-2.6-2.69a.444.444,0,0,1,.255-.748l3.412-.5a2.151,2.151,0,0,0,1.631-1.205l1.611-3.392a.444.444,0,0,1,.8,0l1.611,3.392a2.152,2.152,0,0,0,1.631,1.205l3.412.5A.444.444,0,0,1,1241.261,1446.37Z" transform="translate(-1201.74 -1421.71)"/>
      </g>
      <g class="cls-5" transform="matrix(1, 0, 0, 1, -12.97, -8)">
        <path id="路径_2493-2" data-name="路径 2493" class="cls-2" d="M1218.217,1475.595l-4.017,7.714a.744.744,0,0,0,.634,1.088l2.93.106a4.822,4.822,0,0,1,3.782,2.065l1.719,2.47a.744.744,0,0,0,1.268-.075l3.956-7.438Z" transform="translate(-1201.14 -1434.14)"/>
      </g>
      <g class="cls-4" transform="matrix(1, 0, 0, 1, -12.97, -8)">
        <path id="路径_2494-2" data-name="路径 2494" class="cls-2" d="M1257.459,1475.595l-10.272,5.93,3.956,7.438a.744.744,0,0,0,1.268.075l1.719-2.47a4.824,4.824,0,0,1,3.782-2.065l2.93-.106a.744.744,0,0,0,.633-1.088Z" transform="translate(-1210.1 -1434.14)"/>
      </g>
    </g>
    <rect id="矩形_4393" data-name="矩形 4393" class="cls-3" width="64" height="64" transform="translate(514 478)"/>
  </g>
</svg>
