<svg xmlns="http://www.w3.org/2000/svg" xmlns:xlink="http://www.w3.org/1999/xlink" width="64" height="64" viewBox="0 0 64 64">
  <defs>
    <style>
      .cls-1 {
        opacity: 0.5;
      }

      .cls-2 {
        fill: #fff;
      }

      .cls-3 {
        fill: none;
      }

      .cls-4 {
        filter: url(#路径_2468);
      }
    </style>
    <filter id="路径_2468" x="3.863" y="6.874" width="52.376" height="55.09" filterUnits="userSpaceOnUse">
      <feOffset dy="2" input="SourceAlpha"/>
      <feGaussianBlur stdDeviation="2" result="blur"/>
      <feFlood flood-color="#1639ac" flood-opacity="0.161"/>
      <feComposite operator="in" in2="blur"/>
      <feComposite in="SourceGraphic"/>
    </filter>
  </defs>
  <g id="dhzx_icon" transform="translate(-280 -478)">
    <g id="组_3630" data-name="组 3630" transform="translate(289.863 488.13)">
      <g id="组_3629" data-name="组 3629" class="cls-1" transform="translate(28.84)">
        <path id="路径_2466" data-name="路径 2466" class="cls-2" d="M899.533,1535.283a1.579,1.579,0,0,0-1.768,1.3l-.034.192a1.569,1.569,0,0,0,1.317,1.831,5.052,5.052,0,0,1,4.321,5.807,1.568,1.568,0,0,0,1.375,1.786l.193.024a1.579,1.579,0,0,0,1.75-1.321,8.4,8.4,0,0,0-7.155-9.616Z" transform="translate(-897.708 -1526.774)"/>
        <path id="路径_2467" data-name="路径 2467" class="cls-2" d="M912.447,1531.1a16.96,16.96,0,0,0-11-6.651,1.58,1.58,0,0,0-1.8,1.291l-.035.2a1.583,1.583,0,0,0,1.323,1.83,13.656,13.656,0,0,1,11.395,15.313,1.584,1.584,0,0,0,1.373,1.793l.205.025a1.582,1.582,0,0,0,1.756-1.358A16.971,16.971,0,0,0,912.447,1531.1Z" transform="translate(-898.114 -1524.427)"/>
      </g>
      <g class="cls-4" transform="matrix(1, 0, 0, 1, -9.86, -10.13)">
        <path id="路径_2468-2" data-name="路径 2468" class="cls-2" d="M898.454,1555.964c-3.8-3.5-6.432-4.115-9.136-2.472a12.288,12.288,0,0,0-1.221.862c-.248.192-1.09.871-1.167.932h0c-.889.705-4.155-1.749-8.276-6.457-4.071-4.656-6-8.124-5.183-8.774.079-.065.93-.727,1.168-.925,3.319-2.69,3.637-5.251.219-10.159-1.62-2.32-3.347-3.494-5.224-3.589s-3.357.722-5.6,2.583l-.634.529-.585.477c-4.444,3.539-.955,15.516,8.244,26.038,9.175,10.5,20.831,15.886,25.216,12.4.279-.222,1.369-1.044,1.491-1.137,1.889-1.458,2.915-2.578,3.337-4.072C901.672,1560.2,900.806,1558.129,898.454,1555.964Zm-2.342,7.762a1.565,1.565,0,0,1-2.213.1l-3.616-3.3a1.567,1.567,0,1,1,2.114-2.313l3.615,3.3A1.566,1.566,0,0,1,896.112,1563.726Z" transform="translate(-851.03 -1514.5)"/>
      </g>
    </g>
    <rect id="矩形_4394" data-name="矩形 4394" class="cls-3" width="64" height="64" transform="translate(280 478)"/>
  </g>
</svg>
