<svg xmlns="http://www.w3.org/2000/svg" width="54" height="54" viewBox="0 0 54 54">
  <defs>
    <style>
      .cls-1 {
        fill: none;
        opacity: 0;
      }

      .cls-2 {
        fill: #222;
      }
    </style>
  </defs>
  <g id="jp_icon" transform="translate(-571 -1478)">
    <rect id="矩形_548" data-name="矩形 548" class="cls-1" width="54" height="54" transform="translate(571 1478)"/>
    <g id="组_4034" data-name="组 4034" transform="translate(573.984 1480.983)">
      <path id="路径_2660" data-name="路径 2660" class="cls-2" d="M1946.891,1560.7a24.017,24.017,0,1,0,24.016,24.017A24.044,24.044,0,0,0,1946.891,1560.7Zm0,44.976a20.959,20.959,0,1,1,20.958-20.959A20.982,20.982,0,0,1,1946.891,1605.677Z" transform="translate(-1922.875 -1560.701)"/>
      <path id="路径_2661" data-name="路径 2661" class="cls-2" d="M1968.627,1578.829H1965.7a1.529,1.529,0,0,0,0,3.059h2.931a1.529,1.529,0,0,0,0-3.059Z" transform="translate(-1932.594 -1564.968)"/>
      <path id="路径_2662" data-name="路径 2662" class="cls-2" d="M1968.627,1589.954H1965.7a1.529,1.529,0,1,0,0,3.058h2.931a1.529,1.529,0,1,0,0-3.058Z" transform="translate(-1932.594 -1567.586)"/>
      <path id="路径_2663" data-name="路径 2663" class="cls-2" d="M1941.028,1578.829H1938.1a1.529,1.529,0,0,0,0,3.059h2.932a1.529,1.529,0,0,0,0-3.059Z" transform="translate(-1926.098 -1564.968)"/>
      <path id="路径_2664" data-name="路径 2664" class="cls-2" d="M1941.028,1589.954H1938.1a1.529,1.529,0,1,0,0,3.058h2.932a1.529,1.529,0,1,0,0-3.058Z" transform="translate(-1926.098 -1567.586)"/>
      <path id="路径_2665" data-name="路径 2665" class="cls-2" d="M1941.028,1601.079H1938.1a1.529,1.529,0,1,0,0,3.058h2.932a1.529,1.529,0,0,0,0-3.058Z" transform="translate(-1926.098 -1570.205)"/>
      <path id="路径_2666" data-name="路径 2666" class="cls-2" d="M1954.994,1578.829h-2.931a1.529,1.529,0,0,0,0,3.059h2.931a1.529,1.529,0,0,0,0-3.059Z" transform="translate(-1929.385 -1564.968)"/>
      <path id="路径_2667" data-name="路径 2667" class="cls-2" d="M1954.994,1589.954h-2.931a1.529,1.529,0,1,0,0,3.058h2.931a1.529,1.529,0,1,0,0-3.058Z" transform="translate(-1929.385 -1567.586)"/>
      <path id="路径_2668" data-name="路径 2668" class="cls-2" d="M1954.994,1601.079h-2.931a1.529,1.529,0,1,0,0,3.058h2.931a1.529,1.529,0,1,0,0-3.058Z" transform="translate(-1929.385 -1570.205)"/>
    </g>
  </g>
</svg>
