<svg xmlns="http://www.w3.org/2000/svg" xmlns:xlink="http://www.w3.org/1999/xlink" width="172" height="184" viewBox="0 0 172 184">
  <defs>
    <style>
      .cls-1 {
        fill: #fff;
      }

      .cls-2 {
        clip-path: url(#clip-path);
      }

      .cls-3 {
        fill: #222;
        font-size: 34px;
        font-family: PingFang SC-Bold, PingFang SC;
        font-weight: 700;
      }

      .cls-4 {
        fill: #0061ff;
      }

      .cls-5 {
        filter: url(#矩形_1909);
      }
    </style>
    <clipPath id="clip-path">
      <rect id="矩形_6422" data-name="矩形 6422" class="cls-1" width="172" height="184" transform="translate(217 4046)"/>
    </clipPath>
    <filter id="矩形_1909" x="4.053" y="-12" width="163.894" height="164" filterUnits="userSpaceOnUse">
      <feOffset dy="4" input="SourceAlpha"/>
      <feGaussianBlur stdDeviation="8" result="blur"/>
      <feFlood flood-color="#344cc2" flood-opacity="0.259"/>
      <feComposite operator="in" in2="blur"/>
      <feComposite in="SourceGraphic"/>
    </filter>
  </defs>
  <g id="logo_icon" class="cls-2" transform="translate(-217 -4046)">
    <g id="组_6956" data-name="组 6956" transform="translate(-82)">
      <text id="百姓律师" class="cls-3" transform="translate(317 4222)"><tspan x="0" y="0">百姓律师</tspan></text>
      <g id="组_2572" data-name="组 2572" transform="translate(17563 20781.932)">
        <g class="cls-5" transform="matrix(1, 0, 0, 1, -17264, -16735.93)">
          <rect id="矩形_1909-2" data-name="矩形 1909" class="cls-1" width="115.894" height="116" rx="30" transform="translate(28.05 8)"/>
        </g>
        <path id="交叉_61" data-name="交叉 61" class="cls-4" d="M0,72.355V16.481A30.005,30.005,0,0,1,1.257,7.86L111.19.181A29.859,29.859,0,0,1,116,16.481V72.355a29.977,29.977,0,0,1-1.428,9.173L5.153,89.171A29.865,29.865,0,0,1,0,72.355Z" transform="translate(-17236 -16714.348)"/>
        <g id="组_2569" data-name="组 2569" transform="matrix(0.998, -0.07, 0.07, 0.998, -17221.512, -16699.816)">
          <path id="路径_1125" data-name="路径 1125" class="cls-1" d="M11.2,7.4l1.386-3.037L2.539,4.42,3.16.011,38.891,0l-.652,4.385L22.551,4.36,21.165,7.4l14.742-.01L32.4,31.488,0,31.512,3.508,7.41ZM24.673,27.15l.844-5.517-15.784.011-.844,5.517Zm-14.34-9.877,15.784-.011.844-5.43-15.784.011Z" transform="translate(2.873 0.031)"/>
          <g id="组_1400" data-name="组 1400" transform="translate(43.098 0)">
            <path id="路径_1126" data-name="路径 1126" class="cls-1" d="M17.384,7.385h1.355L19.157,4.4H17.845L18.43.038l-5.465,0L12.38,4.4H10.674L11.3,0,5.838,0,5.209,4.409H3.778L3.361,7.4h1.43L3.026,19.807l2.532,4.632L0,31.436l6.165,0,1.926-2.406,1.31,2.4,5.815,0-3.493-6.947,3.983-4.985ZM10.415,18.359l-1.05,1.312-.654-1.31L10.257,7.39h1.7Z" transform="translate(0 0.017)"/>
            <path id="路径_1127" data-name="路径 1127" class="cls-1" d="M22.732,11.759,23.3,7.416l-5.387,0L18.956,0,12.1,0l-.187,1.661L11.1,7.425H9.67l.6-4.091-5.352,0L3.226,14.925l5.352,0,.46-3.153h1.452l-.777,5.467-6.777,0L2.3,21.64l6.884,0-.77,5.48-7.841.006L0,31.494l19.884-.014.572-4.374-5.325,0,.748-5.48,5.431,0,.637-4.4-5.422,0,.771-5.467Z" transform="translate(15.739 0)"/>
          </g>
          <g id="组_1401" data-name="组 1401" transform="translate(40.06 35.303)">
            <path id="路径_1128" data-name="路径 1128" class="cls-1" d="M6.279,17.511,8.76,0,3.032,0,0,21.556l4.37,0Z" transform="translate(0 2.515)"/>
            <path id="路径_1129" data-name="路径 1129" class="cls-1" d="M24.9,4.416,25.537,0,3.922.015,3.287,4.431l7.477-.005-.429,3.035-7.389.005L0,28.313l5.771,0L8.123,11.79H9.7L7.357,28.308l-.452,3.2,6.777,0,.452-3.2,2.339-16.519h1.677l-.016.124L15.817,28.3l4.394,0,1.9-4.056.649-4.6,1.729-12.2-7.377.005.429-3.035Z" transform="translate(13.44 0)"/>
            <path id="路径_1130" data-name="路径 1130" class="cls-1" d="M7.793,0,7.542,1.783l-1.7,12.01-.5,3.554-.384,2.709L1.39,28.263,0,31.468l6.208,0,1.28-3.2,3.239-8.115L13.582,0Z" transform="translate(2.349 0.032)"/>
          </g>
          <g id="组_1402" data-name="组 1402" transform="translate(0 35.335)">
            <path id="路径_1131" data-name="路径 1131" class="cls-1" d="M11.38,0,3.205,1.607.7,2.1,0,7.082l2.5-.467,1.236-.01L1.185,24.7l6.723,0L10.677,4.983Z" transform="translate(0 6.743)"/>
            <path id="路径_1132" data-name="路径 1132" class="cls-1" d="M10.706,4.983,11.41,0,3.2,1.613.7,2.1,0,7.089,2.5,6.6Z" transform="translate(0.937 0.098)"/>
            <path id="路径_1133" data-name="路径 1133" class="cls-1" d="M25.65,7.4l.791-5.465-8.33.006L18.391,0,11.627,0l-.28,1.94-6.44,0L4.38,5.8l6.412,0L10.557,7.41l-7.7.005-.527,3.8,7.674-.005-.227,1.574-6.41,0-.527,3.848,6.38,0-.271,1.88-6.388,0L2.038,22.41l6.353,0-.234,1.617-7.631.005L0,27.832l7.608-.005-.532,3.689,6.764,0,.3-2.076.233-1.613h0l2.2,0h0l6.745,0,.535-3.795v-.009l-8.934.006.234-1.617,8.633-.006.528-3.891-8.6.006V18.5l.007-.04.129-.894.135-.939,8.387-.006.008-.055.739-5.367h1.312l.527-3.8ZM8.5,24.031H8.468v-.009H8.5Zm.747-5.509h0v-.009h0Zm.835-5.727h-.028v-.009h.028Zm.748-5.377h-.017V7.41h.018ZM18.65,12.78H16.545l.226-1.574h2.1ZM19.4,7.4H17.321l.234-1.618h2.106Z" transform="translate(9.525 0)"/>
          </g>
        </g>
      </g>
    </g>
  </g>
</svg>
