<svg id="sctp_icon" xmlns="http://www.w3.org/2000/svg" width="50" height="41" viewBox="0 0 50 41">
  <defs>
    <style>
      .cls-1 {
        fill: #979eb3;
      }
    </style>
  </defs>
  <circle id="椭圆_38" data-name="椭圆 38" class="cls-1" cx="7.564" cy="7.564" r="7.564" transform="translate(17.94 15.609)"/>
  <path id="路径_335" data-name="路径 335" class="cls-1" d="M924.534,1372.878H916.6a2.339,2.339,0,0,1-1.852-.913l-2.932-3.8a1.041,1.041,0,0,0-.814-.41H896.177a1.039,1.039,0,0,0-.788.435l-2.68,3.715a2.339,2.339,0,0,1-1.9.974h-8.6a3.855,3.855,0,0,0-3.841,3.844v28.188a3.855,3.855,0,0,0,3.841,3.844h42.319a3.855,3.855,0,0,0,3.841-3.844v-28.188A3.855,3.855,0,0,0,924.534,1372.878Zm-20.727,29.9a11.864,11.864,0,1,1,11.851-11.788A11.847,11.847,0,0,1,903.807,1402.782Zm16.277-21.089a1.538,1.538,0,1,1,1.526-1.537A1.532,1.532,0,0,1,920.084,1381.693Z" transform="translate(-878.375 -1367.753)"/>
</svg>
