<svg xmlns="http://www.w3.org/2000/svg" width="88" height="88" viewBox="0 0 88 88">
  <defs>
    <style>
      .cls-1 {
        fill: #222;
      }

      .cls-2 {
        fill: none;
        opacity: 0;
      }
    </style>
  </defs>
  <g id="sctp_icon" transform="translate(-424 -1249)">
    <path id="路径_585" data-name="路径 585" class="cls-1" d="M855.413,1139.025H813.478A3.973,3.973,0,0,0,809.5,1143v31.23a3.974,3.974,0,0,0,3.974,3.973h41.935a3.973,3.973,0,0,0,3.973-3.973V1143A3.973,3.973,0,0,0,855.413,1139.025Zm-36.572,10.517a2.875,2.875,0,1,1,2.875,2.875A2.875,2.875,0,0,1,818.841,1149.542Zm32.625,22.736H823.845a1,1,0,0,1-.868-1.5l8.715-15.1a.485.485,0,0,1,.84,0l4.06,7.033a.485.485,0,0,0,.86-.04l5.136-11.144a.484.484,0,0,1,.88,0l8.908,19.328A1,1,0,0,1,851.466,1172.278Z" transform="translate(-366.504 133.976)"/>
    <rect id="矩形_554" data-name="矩形 554" class="cls-2" width="88" height="88" transform="translate(424 1249)"/>
  </g>
</svg>
