<svg xmlns="http://www.w3.org/2000/svg" xmlns:xlink="http://www.w3.org/1999/xlink" width="128" height="54" viewBox="0 0 128 54">
  <defs>
    <style>
      .cls-1 {
        fill: url(#linear-gradient);
      }

      .cls-2, .cls-3 {
        fill: #fff;
      }

      .cls-2 {
        font-size: 28px;
        font-family: PingFang SC-Medium, PingFang SC;
        font-weight: 500;
      }
    </style>
    <linearGradient id="linear-gradient" y1="0.5" x2="1" y2="0.5" gradientUnits="objectBoundingBox">
      <stop offset="0" stop-color="#2a68f9"/>
      <stop offset="1" stop-color="#4187ff"/>
    </linearGradient>
  </defs>
  <g id="sx_icon" transform="translate(-590 -638)">
    <rect id="矩形_3374" data-name="矩形 3374" class="cls-1" width="128" height="54" rx="27" transform="translate(590 638)"/>
    <text id="私信" class="cls-2" transform="translate(646 675)"><tspan x="0" y="0">私信</tspan></text>
    <g id="组_3628" data-name="组 3628" transform="translate(610.996 651)">
      <path id="路径_2465" data-name="路径 2465" class="cls-3" d="M977.653,1534.16c0-.341-.027-.683-.059-1.024v-.022a9.355,9.355,0,0,0-.069-.945c-.075-.56-.144-1.115-.256-1.67-.149-.737-.315-1.473-.512-2.194a11.194,11.194,0,0,0-1.083-2.577,6.178,6.178,0,0,0-1.665-1.9,9.352,9.352,0,0,0-1.612-.939,12.816,12.816,0,0,0-2.066-.742,18.652,18.652,0,0,0-3.154-.587c-.624-.058-1.254-.134-1.884-.155-.331,0-.662,0-.987.006q-.392-.009-.784,0c-.262.005-.518.021-.779.043-.363.016-.726.048-1.084.085-.17.016-.336.037-.507.058-.187.022-.368.043-.549.075-.134.021-.267.037-.4.059a16.317,16.317,0,0,0-2.583.6,11.349,11.349,0,0,0-2.525,1.11,6.053,6.053,0,0,0-1.6,1.366,8.636,8.636,0,0,0-1.062,1.756,14.444,14.444,0,0,0-.822,2.322,23.15,23.15,0,0,0-.646,3.784c-.059.63-.08,1.26-.1,1.9q-.008.264,0,.528-.008.264,0,.528c.016.63.038,1.265.1,1.9a22.114,22.114,0,0,0,.646,3.779,14.773,14.773,0,0,0,.822,2.322,8.646,8.646,0,0,0,1.062,1.756,6.054,6.054,0,0,0,1.6,1.366,11.458,11.458,0,0,0,2.519,1.115,15.838,15.838,0,0,0,2.583.6c.134.021.267.037.4.059.181.032.368.053.549.074s.336.043.507.059c.357.037.72.064,1.083.085.261.022.518.032.779.043s.523.005.785,0c.331.005.656.005.987-.005.63-.016,1.254-.1,1.884-.155a18.59,18.59,0,0,0,3.154-.587,12.858,12.858,0,0,0,2.065-.742,8.734,8.734,0,0,0,1.612-.939,6.255,6.255,0,0,0,1.665-1.9,11.134,11.134,0,0,0,1.083-2.577c.2-.726.363-1.457.512-2.194.112-.549.187-1.11.256-1.67a9.147,9.147,0,0,0,.069-.945v-.021c.032-.342.059-.683.059-1.025,0-.309,0-.625-.006-.934.011-.3.011-.614.011-.924Zm-11.8,7.28h-7.675a1.233,1.233,0,0,1,0-2.465h7.675a1.233,1.233,0,1,1,0,2.465Zm5.38-4.793h-13.1a1.233,1.233,0,0,1,0-2.466h13.1a1.233,1.233,0,1,1,0,2.466Zm0-4.894h-13.1a1.233,1.233,0,0,1,0-2.466h13.1a1.233,1.233,0,1,1,0,2.466Z" transform="translate(-950.868 -1521.403)"/>
    </g>
  </g>
</svg>
