<svg xmlns="http://www.w3.org/2000/svg" xmlns:xlink="http://www.w3.org/1999/xlink" width="380" height="380" viewBox="0 0 380 380">
  <defs>
    <style>
      .cls-1, .cls-17 {
        fill: #fff;
      }

      .cls-1 {
        stroke: #707070;
      }

      .cls-2 {
        clip-path: url(#clip-path);
      }

      .cls-3 {
        fill: #f6f9ff;
      }

      .cls-4 {
        fill: #dbeafe;
      }

      .cls-5 {
        fill: #f6fbff;
      }

      .cls-6 {
        clip-path: url(#clip-path-2);
      }

      .cls-7 {
        fill: #f1f8ff;
      }

      .cls-8 {
        fill: #f7ccc4;
      }

      .cls-9 {
        fill: #824526;
      }

      .cls-10 {
        fill: #f6d8d1;
      }

      .cls-11 {
        fill: #89c5fa;
      }

      .cls-12 {
        fill: #723b23;
      }

      .cls-13 {
        fill: #b5dcfc;
      }

      .cls-14 {
        fill: #1384eb;
      }

      .cls-15 {
        fill: url(#linear-gradient);
      }

      .cls-16 {
        fill: #3f9cec;
      }

      .cls-18 {
        filter: url(#路径_3578);
      }
    </style>
    <clipPath id="clip-path">
      <rect id="矩形_4659" data-name="矩形 4659" class="cls-1" width="380" height="380" transform="translate(306 217)"/>
    </clipPath>
    <filter id="路径_3578" x="-34" y="-33" width="447.245" height="448" filterUnits="userSpaceOnUse">
      <feOffset dy="4" input="SourceAlpha"/>
      <feGaussianBlur stdDeviation="20" result="blur"/>
      <feFlood flood-color="#0043b8" flood-opacity="0.149"/>
      <feComposite operator="in" in2="blur"/>
      <feComposite in="SourceGraphic"/>
    </filter>
    <clipPath id="clip-path-2">
      <ellipse id="椭圆_459" data-name="椭圆 459" class="cls-1" cx="126.123" cy="126" rx="126.123" ry="126"/>
    </clipPath>
    <linearGradient id="linear-gradient" x1="0.5" y1="-0.015" x2="0.5" y2="1.006" gradientUnits="objectBoundingBox">
      <stop offset="0" stop-color="#52aefc" stop-opacity="0"/>
      <stop offset="1" stop-color="#3c9ceb" stop-opacity="0.502"/>
    </linearGradient>
  </defs>
  <g id="tx_icon" class="cls-2" transform="translate(-306 -217)">
    <g id="组_5445" data-name="组 5445" transform="translate(307.405 1183.697)">
      <g class="cls-18" transform="matrix(1, 0, 0, 1, -1.4, -966.7)">
        <path id="路径_3578-2" data-name="路径 3578" class="cls-3" d="M163.622,0c90.366,0,163.622,73.425,163.622,164S253.989,328,163.622,328,0,254.574,0,164,73.256,0,163.622,0Z" transform="translate(26 23)"/>
      </g>
      <ellipse id="椭圆_455" data-name="椭圆 455" class="cls-4" cx="143.876" cy="144.254" rx="143.876" ry="144.254" transform="translate(44.342 -923.951)"/>
      <g id="组_5435" data-name="组 5435" transform="translate(38.519 -929.773)">
        <path id="路径_3553" data-name="路径 3553" class="cls-4" d="M183.512-634.327c-82.544,0-149.7-67.324-149.7-150.076s67.155-150.076,149.7-150.076,149.7,67.324,149.7,150.076S266.056-634.327,183.512-634.327Zm0-299.4c-82.128,0-148.945,66.985-148.945,149.321s66.817,149.321,148.945,149.321S332.457-702.068,332.457-784.4,265.64-933.724,183.512-933.724Z" transform="translate(-33.813 934.479)"/>
      </g>
      <ellipse id="椭圆_456" data-name="椭圆 456" class="cls-5" cx="127.26" cy="127.637" rx="127.26" ry="127.637" transform="translate(60.991 -907.367)"/>
      <g id="蒙版组_164" data-name="蒙版组 164" class="cls-6" transform="translate(62.417 -905.697)">
        <g id="组_5446" data-name="组 5446" transform="translate(47.353 64.428)">
          <path id="路径_3567" data-name="路径 3567" class="cls-7" d="M3085.35,2791.2l8.353-6.444s9.38-3.094,9.766-3.094,9.252,1.547,9.252,1.547l11.693,3.222s11.693,13.533,11.822,13.919,1.569,36.99,1.569,36.99l-12.363,18.008s-20.817,6.093-21.973,5.706-23.258-17.657-24.415-20.235-2.827-26.292-2.827-26.292l5.525-15.456Z" transform="translate(-3029.265 -2672.383)"/>
          <path id="路径_3568" data-name="路径 3568" class="cls-8" d="M3144.709,2753.69a13.029,13.029,0,0,0,3.277,8.635c-9.316,11.858-16.384,16.24-16.384,16.24s-15.163-3.737-15.292-3.93-3.341-8.506-3.341-8.506l-1.67-3.158s.321,2.965,4.3-8.571S3144.709,2753.69,3144.709,2753.69Z" transform="translate(-3050.817 -2652.397)"/>
          <path id="路径_3569" data-name="路径 3569" class="cls-9" d="M3245.088,2562.824s5.4,7.282.578,23.2-8.674,1.611-9.637-17.851S3245.088,2562.824,3245.088,2562.824Z" transform="translate(-3127.424 -2535.123)"/>
          <path id="路径_3570" data-name="路径 3570" class="cls-9" d="M3049.854,2562.824s-5.4,7.282-.578,23.2,8.674,1.611,9.637-17.851S3049.854,2562.824,3049.854,2562.824Z" transform="translate(-3011.474 -2535.123)"/>
          <path id="路径_3571" data-name="路径 3571" class="cls-10" d="M3116.056,2560.921l9.83,28.322s6.939-.967,6.072,10.44c-.578,6.476-7.835,7.443-7.835,7.443s-5.561,23.006-18.572,30.255-23.419,7.346-36.237-1.354c-5.011-3.48-14.647-13.9-16.961-29-2.121-.29-7.518-1.644-7.9-8.893-.1-3.286.386-7.926,5.879-9.57-.289-6.96,1.055-18.269,1.055-18.269l24.292-12.263Z" transform="translate(-3009.731 -2535.218)"/>
          <path id="路径_3572" data-name="路径 3572" class="cls-11" d="M3183.839,2798.411l-14.23,72.278s70.9-9.572,75.334-33.255c-2.7-4.253-20.916-24.362-23.807-26S3187.309,2792,3187.309,2792Z" transform="translate(-3086.51 -2678.721)"/>
          <path id="路径_3573" data-name="路径 3573" class="cls-11" d="M3037.1,2798.411l13.543,72.489s-69.432-8.52-73.865-32.2c2.7-4.253,20.134-25.625,23.025-27.269S3033.63,2792,3033.63,2792Z" transform="translate(-2976.778 -2678.721)"/>
          <path id="路径_3574" data-name="路径 3574" class="cls-11" d="M3153.364,2814.962l-7.888-5.2-7.889,5.2,6.03,8.1-6.03,41.608,7.889,7.912,7.888-7.912-6.03-41.608Z" transform="translate(-3066.971 -2689.613)"/>
          <path id="路径_3575" data-name="路径 3575" class="cls-12" d="M3140.551,2522.117s-17.347-4.447-29.3-15.756-34.405-8.506-46.067,1.353-11.276,23.586.964,29.385S3112.023,2556.432,3140.551,2522.117Z" transform="translate(-3017.264 -2499.023)"/>
          <path id="路径_3576" data-name="路径 3576" class="cls-13" d="M3174.383,2776.993l6.3,6.061-12.079,18.366-14.135-11.729Z" transform="translate(-3077.343 -2669.516)"/>
          <path id="路径_3577" data-name="路径 3577" class="cls-13" d="M3101.6,2776.993l-6.3,6.061,12.079,18.366,14.135-11.729Z" transform="translate(-3040.985 -2669.516)"/>
        </g>
      </g>
      <path id="路径_3554" data-name="路径 3554" class="cls-14" d="M292.519-847.263l0,0,1.381-5.586s-13.806-36.5-66.019-62.687c-2.249,1.009-4.015,1.875-5.258,2.509a3.018,3.018,0,0,1-2.413.137,127.735,127.735,0,0,0-43.787-7.71c-73.307,0-132.5,61.77-128.55,136.137,3.475,65.458,56.28,118.419,121.547,121.9,74.152,3.96,135.742-55.406,135.742-128.927A128.649,128.649,0,0,0,292.519-847.263ZM169.565-665.578c-65.821-3.527-118.173-58.474-118.856-124.58a126.234,126.234,0,0,1,90.637-122.39,2,2,0,0,1,2.018.562l1.477,1.592a2.143,2.143,0,0,0,2.029.634l16.861-3.71a2.148,2.148,0,0,0,1.652-1.72l.069-.387a1.986,1.986,0,0,1,1.8-1.637c3.032-.228,6.086-.367,9.174-.367,69.326,0,125.727,56.566,125.727,126.094C302.154-719.679,241.992-661.7,169.565-665.578Z" transform="translate(11.79 11.79)"/>
      <g id="组_5438" data-name="组 5438" transform="translate(116.974 -851.007)">
        <path id="路径_3555" data-name="路径 3555" class="cls-14" d="M104.883-882.334H86v18.881h3.871v-15.011h15.011Z" transform="translate(-86.001 882.334)"/>
        <path id="路径_3556" data-name="路径 3556" class="cls-14" d="M186.758-863.453v-18.881H167.876v3.871h15.011v15.011Z" transform="translate(-44.203 882.334)"/>
        <rect id="矩形_4648" data-name="矩形 4648" class="cls-15" width="138.228" height="65.456" transform="translate(2.628 75.117)"/>
        <path id="路径_3557" data-name="路径 3557" class="cls-14" d="M104.883-781.578H86v-18.881h3.871v15.011h15.011Z" transform="translate(-86.001 924.133)"/>
        <path id="路径_3558" data-name="路径 3558" class="cls-14" d="M186.758-800.459v18.881H167.876v-3.871h15.011v-15.011Z" transform="translate(-44.203 924.133)"/>
        <g id="组_5436" data-name="组 5436" transform="translate(97.308 0.955)">
          <path id="路径_3559" data-name="路径 3559" class="cls-14" d="M194.71-881.7v44.3h-1.48v-42.823H150.421v-1.48Z" transform="translate(-150.421 881.702)"/>
          <path id="路径_3560" data-name="路径 3560" class="cls-14" d="M194.71-817.922v44.3H150.421v-1.48h42.808v-42.823Z" transform="translate(-150.421 914.262)"/>
        </g>
        <g id="组_5437" data-name="组 5437" transform="translate(1.148 0.955)">
          <path id="路径_3561" data-name="路径 3561" class="cls-14" d="M86.761-881.7v44.3h1.48v-42.823H131.05v-1.48Z" transform="translate(-86.761 881.702)"/>
          <path id="路径_3562" data-name="路径 3562" class="cls-14" d="M86.761-817.922v44.3H131.05v-1.48H88.242v-42.823Z" transform="translate(-86.761 914.262)"/>
        </g>
      </g>
      <g id="组_5441" data-name="组 5441" transform="translate(326.033 -779.697)">
        <g id="组_5439" data-name="组 5439" transform="translate(4.799)">
          <path id="路径_3563" data-name="路径 3563" class="cls-16" d="M229.153-755.575l-1.322-.729a162.524,162.524,0,0,0,14.188-34.582,163.589,163.589,0,0,0,6.065-44.239h1.51a165.153,165.153,0,0,1-6.121,44.648A164.045,164.045,0,0,1,229.153-755.575Z" transform="translate(-227.831 835.125)"/>
        </g>
        <g id="组_5440" data-name="组 5440" transform="translate(0 73.725)">
          <circle id="椭圆_457" data-name="椭圆 457" class="cls-17" cx="4.829" cy="4.829" r="4.829" transform="translate(0.63 0.631)"/>
          <path id="路径_3564" data-name="路径 3564" class="cls-16" d="M230.113-775.4a5.465,5.465,0,0,1-5.459-5.459,5.465,5.465,0,0,1,5.459-5.459,5.465,5.465,0,0,1,5.459,5.459A5.465,5.465,0,0,1,230.113-775.4Zm0-9.657a4.2,4.2,0,0,0-4.2,4.2,4.2,4.2,0,0,0,4.2,4.2,4.2,4.2,0,0,0,4.2-4.2A4.2,4.2,0,0,0,230.113-785.056Z" transform="translate(-224.654 786.317)"/>
        </g>
      </g>
      <g id="组_5444" data-name="组 5444" transform="translate(38.798 -915.166)">
        <g id="组_5442" data-name="组 5442" transform="translate(0 4.661)">
          <path id="路径_3565" data-name="路径 3565" class="cls-16" d="M34-857.586l1.379.618A162.528,162.528,0,0,1,54.5-889.087a163.593,163.593,0,0,1,31.719-31.428l-.908-1.208A165.126,165.126,0,0,0,53.295-890,164.014,164.014,0,0,0,34-857.586Z" transform="translate(-33.998 921.723)"/>
        </g>
        <g id="组_5443" data-name="组 5443" transform="translate(46.761)">
          <circle id="椭圆_458" data-name="椭圆 458" class="cls-17" cx="4.829" cy="4.829" r="4.829" transform="translate(0.628 0.628)"/>
          <path id="路径_3566" data-name="路径 3566" class="cls-16" d="M67.132-923.716a5.465,5.465,0,0,1,7.643,1.085,5.462,5.462,0,0,1-1.085,7.643,5.463,5.463,0,0,1-7.643-1.085A5.465,5.465,0,0,1,67.132-923.716Zm.757,1.009a4.2,4.2,0,0,0-.832,5.877,4.2,4.2,0,0,0,5.877.834,4.205,4.205,0,0,0,.834-5.879A4.2,4.2,0,0,0,67.889-922.707Z" transform="translate(-64.955 924.808)"/>
        </g>
      </g>
    </g>
  </g>
</svg>
