<svg xmlns="http://www.w3.org/2000/svg" xmlns:xlink="http://www.w3.org/1999/xlink" width="26" height="26" viewBox="0 0 26 26">
  <defs>
    <style>
      .cls-1 {
        fill: #fff;
        stroke: #707070;
      }

      .cls-2 {
        clip-path: url(#clip-path);
      }

      .cls-3 {
        fill: url(#linear-gradient);
      }
    </style>
    <clipPath id="clip-path">
      <rect id="矩形_6056" data-name="矩形 6056" class="cls-1" width="26" height="26" transform="translate(-2532 5274)"/>
    </clipPath>
    <linearGradient id="linear-gradient" x1="0.309" y1="0.409" x2="0.866" y2="0.985" gradientUnits="objectBoundingBox">
      <stop offset="0" stop-color="#fbbf47"/>
      <stop offset="1" stop-color="#f99c1c"/>
    </linearGradient>
  </defs>
  <g id="wg_icon" class="cls-2" transform="translate(2532 -5274)">
    <path id="路径_4407" data-name="路径 4407" class="cls-3" d="M47.022,32.4,40.81,36.227l-5.957-7.945a.257.257,0,0,0-.412,0l-5.953,7.945L22.272,32.4a.258.258,0,0,0-.389.252l2.439,18.534a.519.519,0,0,0,.511.447H44.468a.513.513,0,0,0,.508-.447l2.439-18.534a.26.26,0,0,0-.393-.252ZM34.649,47.011a3.594,3.594,0,1,1,3.594-3.594A3.6,3.6,0,0,1,34.649,47.011Zm0-5.136a1.542,1.542,0,1,0,1.539,1.542A1.54,1.54,0,0,0,34.649,41.875Z" transform="translate(-2553.648 5247.094)"/>
  </g>
</svg>
