<svg xmlns="http://www.w3.org/2000/svg" width="383" height="30.002" viewBox="0 0 383 30.002">
  <defs>
    <style>
      .cls-1 {
        fill: #0061ff;
      }

      .cls-2 {
        fill: #c9ced9;
      }

      .cls-3 {
        fill: #ff6e57;
      }
    </style>
  </defs>
  <g id="xhhz_txt" transform="translate(-233.003 -230.002)">
    <g id="组_4729" data-name="组 4729" transform="translate(233.003 230.002)">
      <g id="组_4721" data-name="组 4721" transform="translate(0 0)">
        <path id="路径_2983" data-name="路径 2983" class="cls-1" d="M1769.83,1816.529h-6.058v-4.061h34.552v4.061h-23.3l-2.322,2.938h24.956v19.726a3.06,3.06,0,0,1-.849,2.18,2.745,2.745,0,0,1-2.067.891H1764.4v-22.794h3.109Zm22.946,7h-23.5v4.969h23.5Zm-.827,14.71a.762.762,0,0,0,.591-.27.952.952,0,0,0,.236-.646v-4.765h-23.5v5.68Z" transform="translate(-1763.772 -1812.387)"/>
        <path id="路径_2984" data-name="路径 2984" class="cls-1" d="M1776.88,1812.45h5.077v3.525h2.129v-3.525h5.035v3.525h1.1v4.143h-1.1v15.076a11.376,11.376,0,0,1-1.768,1.62q1.411.621,2.873,1.16v4.347a26.5,26.5,0,0,1-3.939-1.321c-1.155-.5-2.257-1.008-3.3-1.537-1.053.529-2.142,1.036-3.271,1.536a24.764,24.764,0,0,1-3.935,1.322v-4.347c.971-.363,1.928-.746,2.873-1.16a9.517,9.517,0,0,1-1.771-1.62v-15.077h-1.1v-4.143h1.1Zm6.416,21.794.79-.5v-13.626h-2.129v13.677c.236.166.476.318.709.456a1.893,1.893,0,0,0,.318.2Zm13.9-20.88-.633,2.523h2.086v-3.439h4.96v3.439h6.218v4.143h-6.218v6.01h5.431v4.143h-5.431v8.079h6.651v4.056h-19.479v-4.056h7.868v-8.079h-6.494v-4.143h6.494v-6.01h-8.383l1.889-6.666Z" transform="translate(-1736.389 -1812.417)"/>
        <path id="路径_2985" data-name="路径 2985" class="cls-1" d="M1787.76,1831.475l2.873-6.8h-2.873l4.962-11.72h5.939l-2.834,6.79h2.834l-3.148,7.54h1.731v15.08h-5.707v-10.892Zm19.246,4.474v-1.575h-8.538v-3.314H1807v-1.495h-7.99v-3.645H1807v-2.482h-7.99v-3.525H1807v-1.943h-7.99v-3.6H1807v-1.91h5.352v1.91h9.013v5.547h.984v3.525h-.984v2.2a3.883,3.883,0,0,1-.3,1.532,4.215,4.215,0,0,1-.787,1.24,3.462,3.462,0,0,1-1.181.849,3.4,3.4,0,0,1-1.436.311h-5.313v1.495h9.013v3.314h-9.013v1.575h9.446v3.314h-9.446v3.062H1807v-3.062h-8.974v-3.314Zm5.352-16.036h4.015v-1.943h-4.015Zm0,6.007h3.385a.594.594,0,0,0,.453-.183.611.611,0,0,0,.177-.435v-1.865h-4.015Z" transform="translate(-1709.086 -1812.417)"/>
        <path id="路径_2986" data-name="路径 2986" class="cls-1" d="M1804.21,1837.5h-4.41v-22.9h4.408Zm5.041,4.933h-5l1.771-4.556-.039-25.436h4.959v25.436Zm12.04-23.779v-2.319H1813.3v-3.852h20.823v3.852h-7.993v2.319h4.29a3.482,3.482,0,0,1,2.6,1.16,3.91,3.91,0,0,1,1.1,2.779v13.42a5.1,5.1,0,0,1-.357,1.779,3.717,3.717,0,0,1-.945,1.449,3.8,3.8,0,0,1-1.338.953,4.109,4.109,0,0,1-1.728.376h-2.168l.433-4.1a1.4,1.4,0,0,0,.909-.369,1.686,1.686,0,0,0,.312-.953v-11.187a1.421,1.421,0,0,0-.374-1.015,1.272,1.272,0,0,0-.965-.394h-1.771v19.795h-4.842v-19.795h-3.109v18.021h-4.88v-21.915Z" transform="translate(-1681.62 -1812.444)"/>
      </g>
      <path id="矩形_3757" data-name="矩形 3757" class="cls-2" d="M4,0H8.607a1,1,0,0,1,1,1V5.607a4,4,0,0,1-4,4H1a1,1,0,0,1-1-1V4A4,4,0,0,1,4,0Z" transform="translate(172.069 10.191)"/>
    </g>
    <g id="组_6111" data-name="组 6111" transform="translate(432.003 230.004)">
      <path id="路径_4038" data-name="路径 4038" class="cls-3" d="M1288.689,2146.163l1.957-5.261h5.76l-1.919,5.261Zm13.667-29.665v1.864h17.73v4.1h-17.73v2.4h19.162v10.857a3.938,3.938,0,0,1-.281,1.489,4.067,4.067,0,0,1-.772,1.245,3.67,3.67,0,0,1-1.146.849,3.2,3.2,0,0,1-1.375.311H1289.1v-14.752h7.417V2116.5Zm13.968,12.432H1294.3v6.584h21.423a.547.547,0,0,0,.432-.185.625.625,0,0,0,.171-.436Zm-18.337,11.972h5.76l1.957,5.261h-5.76Zm8.059,0h5.76l1.921,5.261h-5.76Zm13.817,0,1.919,5.261h-5.76l-1.919-5.261Z" transform="translate(-1288.689 -2116.332)"/>
      <path id="路径_4039" data-name="路径 4039" class="cls-3" d="M1319.439,2125.79h-2.561l2.561,6.84h-5.687l-3.5-9.324h2.6l-2.6-6.836h5.72Zm-5.687,8.743h5.687l-3.466,11.808h-5.72Zm29.555,7.294a4.4,4.4,0,0,1-.374,1.823,4.226,4.226,0,0,1-.867,1.407,4.167,4.167,0,0,1-1.318.953,4.419,4.419,0,0,1-1.582.331h-3.5l.942-2.815h.376a.969.969,0,0,0,.792-.375,1.273,1.273,0,0,0,.339-.954v-13.463a.78.78,0,0,0-.188-.54.673.673,0,0,0-.528-.2h-11.407v18.352h-5.119v-21.3l3.726.044-1.054-3.523h4.855l1.054,3.479h5.273l1.054-3.479h4.857l-1.054,3.479h1.354a2.363,2.363,0,0,1,1.657.665,2.949,2.949,0,0,1,.715,2.236Zm-21.761-23.949h7.078l-.6-1.451h6.135l.6,1.451h7.831v2.9h-21.046Zm8.473,17.65v-1.99h-3.539V2130.6h3.539v-1.614h4.591v1.614h3.05v2.941h-3.05v1.99h2.936v3.769a4.647,4.647,0,0,1-.337,1.785,5.641,5.641,0,0,1-.9,1.449,3.429,3.429,0,0,1-1.318.952,3.389,3.389,0,0,1-1.657.374h-6.7v-8.328Zm2.6,5.428a1.077,1.077,0,0,0,.828-.374,1.46,1.46,0,0,0,.339-.951v-1.243h-3.429v2.568Z" transform="translate(-1272.487 -2116.386)"/>
      <path id="路径_4040" data-name="路径 4040" class="cls-3" d="M1331.837,2116.4h5.348l2.747,6.754h-5.346Zm5.2,30a2.772,2.772,0,0,1-2.108-.935,3.241,3.241,0,0,1-.868-2.3v-13.546h-2.221v-4.105h7.532v16.077a1.28,1.28,0,0,0,.355.914,1.143,1.143,0,0,0,.848.371h1.618l-1.431,3.524Zm8.508-29.79h5.007l-4.331,14.332h-4.969Zm8.394,10.6-4.443,13.717h9.149l-.977-4.558h4.857l2.185,9.983h-4.86l-.3-1.366h-16.79l6.1-17.776Zm5.687,3.729-2.71-14.542h5.005l2.712,14.542Z" transform="translate(-1256.271 -2116.403)"/>
      <path id="路径_4041" data-name="路径 4041" class="cls-3" d="M1386.234,2146.3H1353.4v-4.019h21.8l1.242-4.929h-21.8l4.406-16.907h-5.009v-4.019h31.665v4.019h-21.159l-1.054,4.063H1385.4l-4.665,17.773h5.5Zm-8.775-13.009,1.206-4.768h-16.189l-1.2,4.768Z" transform="translate(-1240.071 -2116.386)"/>
      <path id="路径_4042" data-name="路径 4042" class="cls-3" d="M1381.127,2116.426h9.112v25.19l1.316-.08v3.395l-16.677,1.41V2142.9l1.655-.121v-26.355Zm0,3.44v5.388h4.52v-5.388Zm4.52,8.827h-4.52v5.01h4.52Zm0,13.339v-4.89h-4.52v5.265Zm15.623-25.563-.451,3.811h7.115v21.461a4.949,4.949,0,0,1-.32,1.783,4.6,4.6,0,0,1-.884,1.449,4.142,4.142,0,0,1-1.318.975,3.81,3.81,0,0,1-1.618.35h-4.707l1.391-4.1h1.959a1.076,1.076,0,0,0,.83-.371,1.317,1.317,0,0,0,.337-.911V2124.34h-3.277l-2.67,21.96H1393.1l2.711-21.96H1392.2v-4.059h4.1l.455-3.811Z" transform="translate(-1223.933 -2116.386)"/>
    </g>
  </g>
</svg>
