<svg xmlns="http://www.w3.org/2000/svg" xmlns:xlink="http://www.w3.org/1999/xlink" width="94" height="94" viewBox="0 0 94 94">
  <defs>
    <style>
      .cls-1 {
        fill: url(#linear-gradient);
      }

      .cls-2 {
        fill: #fff;
      }

      .cls-3 {
        fill: url(#linear-gradient-2);
      }

      .cls-4 {
        fill: url(#linear-gradient-3);
      }

      .cls-5 {
        filter: url(#路径_2522);
      }

      .cls-6 {
        filter: url(#矩形_3044);
      }
    </style>
    <linearGradient id="linear-gradient" x1="0.205" y1="0.142" x2="0.76" y2="0.892" gradientUnits="objectBoundingBox">
      <stop offset="0" stop-color="#4766ff"/>
      <stop offset="1" stop-color="#469cff"/>
    </linearGradient>
    <linearGradient id="linear-gradient-2" x1="0.356" x2="0.361" y2="1" gradientUnits="objectBoundingBox">
      <stop offset="0" stop-color="#fff"/>
      <stop offset="1" stop-color="#9ecbff"/>
    </linearGradient>
    <filter id="矩形_3044" x="28.069" y="59.429" width="37.553" height="21.551" filterUnits="userSpaceOnUse">
      <feOffset dy="3" input="SourceAlpha"/>
      <feGaussianBlur stdDeviation="3" result="blur"/>
      <feFlood flood-color="#0050b8" flood-opacity="0.361"/>
      <feComposite operator="in" in2="blur"/>
      <feComposite in="SourceGraphic"/>
    </filter>
    <linearGradient id="linear-gradient-3" x1="0.5" x2="0.5" y2="0.982" gradientUnits="objectBoundingBox">
      <stop offset="0" stop-color="#fff"/>
      <stop offset="1" stop-color="#c5e0ff"/>
    </linearGradient>
    <filter id="路径_2522" x="21.693" y="23.194" width="50.305" height="51.909" filterUnits="userSpaceOnUse">
      <feOffset dy="3" input="SourceAlpha"/>
      <feGaussianBlur stdDeviation="3" result="blur-2"/>
      <feFlood flood-color="#0046a1" flood-opacity="0.188"/>
      <feComposite operator="in" in2="blur-2"/>
      <feComposite in="SourceGraphic"/>
    </filter>
  </defs>
  <g id="xxtx_icon" transform="translate(-32 -686)">
    <circle id="椭圆_308" data-name="椭圆 308" class="cls-1" cx="47" cy="47" r="47" transform="translate(32 686)"/>
    <g id="组_3751" data-name="组 3751" transform="translate(59 711)">
      <path id="矩形_3043" data-name="矩形 3043" class="cls-2" d="M2.061,0h0A2.061,2.061,0,0,1,4.122,2.061v2.73a0,0,0,0,1,0,0H0a0,0,0,0,1,0,0V2.061A2.061,2.061,0,0,1,2.061,0Z" transform="translate(17.784)"/>
      <g class="cls-6" transform="matrix(1, 0, 0, 1, -27, -25)">
        <rect id="矩形_3044-2" data-name="矩形 3044" class="cls-3" width="19.553" height="3.551" rx="1.776" transform="translate(37.07 65.43)"/>
      </g>
      <g class="cls-5" transform="matrix(1, 0, 0, 1, -27, -25)">
        <path id="路径_2522-2" data-name="路径 2522" class="cls-4" d="M1111.964,1789.7c-8.921,0-16.153,7.765-16.153,17.344v16.564h32.305v-16.564C1128.116,1797.466,1120.885,1789.7,1111.964,1789.7Z" transform="translate(-1065.12 -1760.51)"/>
      </g>
      <rect id="矩形_3045" data-name="矩形 3045" class="cls-2" width="39.69" height="3.551" rx="1.776" transform="translate(0 34.552)"/>
    </g>
  </g>
</svg>
